<svg width="301" height="45" viewBox="0 0 301 45" fill="none" xmlns="http://www.w3.org/2000/svg">
<path d="M2.05371 28.2603C2.90755 28.5402 3.68441 28.7642 4.38428 28.9321C5.74202 23.4731 7.28874 17.0273 9.02441 9.59473L3.96436 9.04883C3.64242 8.16699 3.48145 7.16618 3.48145 6.04639C3.48145 5.19255 3.57943 4.3597 3.77539 3.54785C5.80501 3.15592 8.14258 2.87598 10.7881 2.70801C13.4476 2.52604 15.7292 2.43506 17.6328 2.43506C19.0046 2.43506 20.0334 2.44206 20.7192 2.45605L22.042 3.21191C24.3936 9.66471 26.7801 18.3921 29.2017 29.394C29.2297 29.506 29.2786 29.73 29.3486 30.0659C29.4326 30.4019 29.4956 30.7238 29.5376 31.0317C29.5796 31.3257 29.6006 31.6056 29.6006 31.8716C29.6006 33.0474 29.1807 33.9992 28.3408 34.7271C27.165 35.189 25.7443 35.4199 24.0786 35.4199C23.2948 35.4199 22.5039 35.3359 21.7061 35.168C20.9082 35 20.3693 34.741 20.0894 34.3911L20.3413 28.9741L19.8164 26.1606C18.9066 26.2166 17.8358 26.2446 16.604 26.2446C15.2882 26.2446 14.0565 26.2026 12.9087 26.1187L12.6567 27.2524C12.1108 29.688 11.6629 31.4167 11.313 32.4385C10.9771 33.4603 10.4731 34.2161 9.80127 34.7061C9.14339 35.196 8.15658 35.4409 6.84082 35.4409C5.98698 35.4409 5.12614 35.3289 4.2583 35.105C3.39046 34.895 2.60661 34.6081 1.90674 34.2441C1.20687 33.8802 0.681966 33.4883 0.332031 33.0684C0.332031 32.0605 0.486003 31.1017 0.793945 30.1919C1.10189 29.2821 1.52181 28.6382 2.05371 28.2603ZM16.772 9.78369H15.8062L14.2944 20.1348H18.9976L16.772 9.78369ZM33.6948 27.6934C33.6948 25.4118 33.7228 23.6901 33.7788 22.5283C33.8348 21.3525 33.9818 19.6309 34.2197 17.3633L31.8052 17.0483C31.5112 16.1385 31.3153 15.3267 31.2173 14.6128C31.1333 13.8989 31.0913 12.9751 31.0913 11.8413C31.3153 11.6453 31.6862 11.4144 32.2041 11.1484C32.736 10.8685 33.3589 10.6305 34.0728 10.4346C34.8006 10.2246 35.5355 10.1196 36.2773 10.1196C37.971 10.1196 39.1678 10.4836 39.8677 11.2114C40.5815 11.9393 40.9385 13.0311 40.9385 14.4868C40.9385 15.2987 40.8195 16.3975 40.5815 17.7832C40.1896 20.0088 39.9937 21.1776 39.9937 21.2896C39.9937 21.3595 40.0426 21.4295 40.1406 21.4995C40.2386 21.5555 40.3436 21.5835 40.4556 21.5835C40.5815 21.5835 40.6655 21.5345 40.7075 21.4365C40.6935 21.4925 40.8545 20.7856 41.1904 19.3159C41.5964 17.3843 42.0093 15.8096 42.4292 14.5918C42.8631 13.374 43.549 12.3312 44.4868 11.4634C45.4246 10.5955 46.6984 10.1616 48.3081 10.1616C50.2957 10.1616 51.7305 10.7355 52.6123 11.8833C53.4941 13.0171 53.9351 14.5288 53.9351 16.4185C53.9351 17.9162 53.6831 19.5819 53.1792 21.4155C53.1792 21.4855 53.2282 21.5555 53.3262 21.6255C53.4242 21.6815 53.5291 21.7095 53.6411 21.7095C53.7671 21.7095 53.8511 21.6605 53.8931 21.5625L54.187 20.3867C54.6909 18.3151 55.1878 16.5934 55.6777 15.2217C56.1816 13.8499 56.9305 12.6672 57.9243 11.6733C58.9321 10.6655 60.2409 10.1616 61.8506 10.1616C63.9642 10.1616 65.4829 10.8405 66.4067 12.1982C67.3446 13.556 67.8135 15.2637 67.8135 17.3213C67.8135 18.777 67.6735 20.2397 67.3936 21.7095C67.1276 23.1792 66.8407 24.411 66.5327 25.4048C66.2388 26.3986 65.8748 27.5464 65.4409 28.8481L65.4829 28.8901L68.5903 27.5884C69.6821 28.5262 70.319 29.772 70.501 31.3257C70.501 31.4237 70.186 31.8296 69.5562 32.5435C68.9263 33.2433 68.0934 33.9012 67.0576 34.5171C66.0358 35.119 64.86 35.4199 63.5303 35.4199C62.2005 35.4199 61.1157 35.063 60.2759 34.3491C59.436 33.6353 59.0161 32.4175 59.0161 30.6958C59.0161 28.7782 59.0511 26.8115 59.1211 24.7959C59.2051 22.7663 59.3241 20.9466 59.478 19.3369C59.2401 19.141 58.9111 19.036 58.4912 19.022C58.0713 19.4279 57.5464 20.3167 56.9165 21.6885C56.2866 23.0462 55.7057 24.502 55.1738 26.0557C54.6419 27.5954 54.306 28.7992 54.166 29.667C54.362 31.0387 54.6629 32.3965 55.0688 33.7402C54.8169 34.2161 54.299 34.6151 53.5151 34.937C52.7313 35.259 51.7655 35.4199 50.6177 35.4199C49.5819 35.4199 48.77 35.3359 48.1821 35.168C47.5942 35 47.1883 34.825 46.9644 34.6431C46.7544 34.4611 46.6494 34.3421 46.6494 34.2861C46.6354 34.1602 46.6004 33.8312 46.5444 33.2993C46.4884 32.7534 46.4325 31.9976 46.3765 31.0317C46.3205 30.0519 46.2925 28.9391 46.2925 27.6934C46.2925 26.5036 46.3835 25.0129 46.5654 23.2212C46.5794 22.9972 46.6214 22.4653 46.6914 21.6255C46.7614 20.7856 46.7964 20.0228 46.7964 19.3369C46.5584 19.141 46.2295 19.036 45.8096 19.022C45.5716 19.2039 44.9067 20.3657 43.8149 22.5073C42.7231 24.6489 41.9953 26.1606 41.6313 27.0425C41.6034 27.2384 41.5894 27.4274 41.5894 27.6094C41.5894 28.3092 41.6943 29.2541 41.9043 30.4438C42.1143 31.6196 42.3732 32.7184 42.6812 33.7402C42.4292 34.2161 41.9113 34.6151 41.1274 34.937C40.3436 35.259 39.3778 35.4199 38.23 35.4199C37.1942 35.4199 36.3613 35.3359 35.7314 35.168C35.1156 35 34.6816 34.825 34.4297 34.6431C34.1777 34.4471 34.0518 34.3281 34.0518 34.2861C34.0378 34.1602 34.0028 33.8312 33.9468 33.2993C33.8908 32.7534 33.8348 31.9976 33.7788 31.0317C33.7228 30.0519 33.6948 28.9391 33.6948 27.6934ZM78.6055 21.1636C79.4313 21.1636 80.3411 21.2476 81.335 21.4155C82.3428 21.5835 83.2666 21.7865 84.1064 22.0244V21.3735C84.1064 20.9396 84.0924 20.4567 84.0645 19.9248C84.0505 19.3929 84.0225 19.043 83.9805 18.875C83.8545 18.637 83.4906 18.3921 82.8887 18.1401C82.3008 17.8882 81.335 17.7622 79.9912 17.7622C79.1654 17.7622 78.3115 17.8672 77.4297 18.0771C76.5618 18.2731 75.596 18.5391 74.5322 18.875C73.9583 17.9232 73.4964 17.0203 73.1465 16.1665C72.8105 15.2987 72.6426 14.4308 72.6426 13.563C72.6426 13.297 72.6636 13.0311 72.7056 12.7651C74.9731 11.0015 77.9056 10.1196 81.5029 10.1196C83.4906 10.1196 85.2542 10.3436 86.7939 10.7915C88.3337 11.2394 89.6004 12.1073 90.5942 13.395C91.5881 14.6828 92.085 16.5094 92.085 18.875C92.085 21.1846 91.812 23.4242 91.2661 25.5938C90.7342 27.7493 90.4613 28.8481 90.4473 28.8901L93.4917 27.5884C93.8976 28.0223 94.2546 28.5542 94.5625 29.1841C94.8844 29.8 95.0874 30.5138 95.1714 31.3257C94.9754 31.7456 94.5485 32.2845 93.8906 32.9424C93.2327 33.5863 92.4279 34.1602 91.4761 34.6641C90.5243 35.168 89.5304 35.4199 88.4946 35.4199C87.3328 35.4199 86.451 35.077 85.8491 34.3911C85.2612 33.7052 84.9673 32.8164 84.9673 31.7246C84.9673 31.1087 85.0583 30.4858 85.2402 29.856L84.6104 29.667C84.2184 31.8786 83.3856 33.3903 82.1118 34.2021C80.8381 35.014 79.4313 35.4199 77.8916 35.4199C76.8838 35.4199 75.911 35.14 74.9731 34.5801C74.0353 34.0062 73.2725 33.1803 72.6846 32.1025C72.0967 31.0107 71.8027 29.737 71.8027 28.2812C71.8027 25.9577 72.3836 24.194 73.5454 22.9902C74.7072 21.7725 76.3939 21.1636 78.6055 21.1636ZM80.999 29.1631C81.349 29.0931 81.7619 28.8971 82.2378 28.5752C82.7277 28.2533 83.1616 27.8683 83.5396 27.4204C83.9175 26.9725 84.1414 26.5456 84.2114 26.1396L84.0854 25.6357C83.3436 25.5378 82.5527 25.4888 81.7129 25.4888C80.999 25.4888 80.5091 25.5448 80.2432 25.6567C79.7952 26.1606 79.5713 26.7205 79.5713 27.3364C79.5713 27.7843 79.6833 28.1903 79.9072 28.5542C80.1452 28.9181 80.5091 29.1211 80.999 29.1631ZM98.2158 27.6934C98.2158 25.4118 98.2438 23.6901 98.2998 22.5283C98.3558 21.3525 98.5028 19.6309 98.7407 17.3633L96.3052 17.0483C96.0112 16.1385 95.8153 15.3267 95.7173 14.6128C95.6333 13.8989 95.5913 12.9751 95.5913 11.8413C95.8153 11.6453 96.1862 11.4144 96.7041 11.1484C97.236 10.8685 97.8659 10.6305 98.5938 10.4346C99.3216 10.2246 100.056 10.1196 100.798 10.1196C102.492 10.1196 103.689 10.4836 104.389 11.2114C105.103 11.9393 105.459 13.0311 105.459 14.4868C105.459 15.2987 105.34 16.3975 105.103 17.7832C104.711 20.0088 104.515 21.1776 104.515 21.2896C104.515 21.3595 104.564 21.4295 104.662 21.4995C104.76 21.5555 104.865 21.5835 104.977 21.5835C105.103 21.5835 105.187 21.5345 105.229 21.4365C105.788 19.2109 106.348 17.3493 106.908 15.8516C107.468 14.3538 108.315 13.0241 109.449 11.8623C110.583 10.7005 112.052 10.1196 113.858 10.1196C116.097 10.1196 117.707 10.8055 118.687 12.1772C119.667 13.535 120.157 15.2497 120.157 17.3213C120.157 19.1689 119.94 20.9536 119.506 22.6753C119.072 24.383 118.533 26.1676 117.889 28.0293C117.917 27.9593 117.819 28.2323 117.595 28.8481L117.637 28.8901L120.703 27.6304C121.794 28.5682 122.431 29.814 122.613 31.3677C122.613 31.4657 122.298 31.8646 121.668 32.5645C121.053 33.2643 120.234 33.9152 119.212 34.5171C118.19 35.119 117.014 35.4199 115.685 35.4199C114.355 35.4199 113.27 35.063 112.43 34.3491C111.59 33.6353 111.17 32.4175 111.17 30.6958C111.17 29.3241 111.226 27.4904 111.338 25.1948C111.45 22.8993 111.562 21.0516 111.674 19.6519C111.31 19.2599 110.862 19.05 110.331 19.022C109.841 19.6519 109.12 20.9116 108.168 22.8013C107.216 24.6909 106.544 26.1047 106.152 27.0425C106.124 27.2384 106.11 27.4274 106.11 27.6094C106.11 28.3092 106.215 29.2541 106.425 30.4438C106.635 31.6196 106.894 32.7184 107.202 33.7402C106.95 34.2161 106.432 34.6151 105.648 34.937C104.865 35.259 103.899 35.4199 102.751 35.4199C101.715 35.4199 100.882 35.3359 100.252 35.168C99.6366 35 99.2026 34.825 98.9507 34.6431C98.6987 34.4471 98.5728 34.3281 98.5728 34.2861C98.5588 34.1602 98.5238 33.8312 98.4678 33.2993C98.4118 32.7534 98.3558 31.9976 98.2998 31.0317C98.2438 30.0519 98.2158 28.9391 98.2158 27.6934ZM124.314 22.8853C124.314 20.7576 124.608 18.721 125.196 16.7754C125.798 14.8298 126.736 13.234 128.009 11.9883C129.297 10.7425 130.914 10.1196 132.859 10.1196C135.043 10.1196 137.129 10.8125 139.116 12.1982L139.452 11.9883C139.41 10.3506 139.207 8.86686 138.843 7.53711L134.581 7.26416C134.385 7.01221 134.231 6.64128 134.119 6.15137C134.007 5.64746 133.951 5.12956 133.951 4.59766C133.951 3.88379 134.035 3.2679 134.203 2.75C135.043 2.14811 136.121 1.6932 137.437 1.38525C138.752 1.07731 140.068 0.92334 141.384 0.92334C142.84 0.92334 143.938 1.23128 144.68 1.84717C145.422 2.44906 145.919 3.36589 146.171 4.59766C146.437 5.81543 146.57 7.50911 146.57 9.67871C146.57 12.5342 146.451 15.7746 146.213 19.3999C145.975 23.0252 145.667 25.9857 145.289 28.2812L145.205 28.6382L147.641 27.5884C148.047 28.0223 148.403 28.5542 148.711 29.1841C149.033 29.8 149.236 30.5138 149.32 31.3257C149.124 31.7456 148.697 32.2845 148.04 32.9424C147.382 33.5863 146.577 34.1602 145.625 34.6641C144.673 35.168 143.679 35.4199 142.644 35.4199C141.482 35.4199 140.586 35.077 139.956 34.3911C139.34 33.6912 139.032 32.8024 139.032 31.7246C139.032 31.4447 139.102 30.8708 139.242 30.0029C139.396 29.1351 139.522 28.5332 139.62 28.1973L138.99 28.0083C138.276 30.5138 137.332 32.3755 136.156 33.5933C134.98 34.811 133.524 35.4199 131.789 35.4199C129.927 35.4199 128.436 34.804 127.316 33.5723C126.211 32.3265 125.434 30.7658 124.986 28.8901C124.538 27.0145 124.314 25.0129 124.314 22.8853ZM138.717 22.5073C138.801 22.0034 138.843 21.4155 138.843 20.7437C138.843 20.3097 138.822 19.8968 138.78 19.5049C138.752 19.113 138.717 18.833 138.675 18.665C138.115 18.2591 137.479 17.9722 136.765 17.8042C136.065 17.6362 135.421 17.5522 134.833 17.5522C134.469 17.5522 134.077 17.5872 133.657 17.6572C133.377 17.9372 133.153 18.5461 132.985 19.4839C132.817 20.4077 132.733 21.4505 132.733 22.6123C132.733 23.8581 132.817 25.0688 132.985 26.2446C133.167 27.4064 133.419 28.3162 133.741 28.9741C133.965 28.9741 134.399 28.6312 135.043 27.9453C135.701 27.2454 136.38 26.3916 137.08 25.3838C137.779 24.362 138.325 23.4032 138.717 22.5073ZM157.509 21.1636C158.335 21.1636 159.244 21.2476 160.238 21.4155C161.246 21.5835 162.17 21.7865 163.01 22.0244V21.3735C163.01 20.9396 162.996 20.4567 162.968 19.9248C162.954 19.3929 162.926 19.043 162.884 18.875C162.758 18.637 162.394 18.3921 161.792 18.1401C161.204 17.8882 160.238 17.7622 158.895 17.7622C158.069 17.7622 157.215 17.8672 156.333 18.0771C155.465 18.2731 154.499 18.5391 153.436 18.875C152.862 17.9232 152.4 17.0203 152.05 16.1665C151.714 15.2987 151.546 14.4308 151.546 13.563C151.546 13.297 151.567 13.0311 151.609 12.7651C153.876 11.0015 156.809 10.1196 160.406 10.1196C162.394 10.1196 164.158 10.3436 165.697 10.7915C167.237 11.2394 168.504 12.1073 169.498 13.395C170.491 14.6828 170.988 16.5094 170.988 18.875C170.988 21.1846 170.715 23.4242 170.169 25.5938C169.638 27.7493 169.365 28.8481 169.351 28.8901L172.395 27.5884C172.801 28.0223 173.158 28.5542 173.466 29.1841C173.788 29.8 173.991 30.5138 174.075 31.3257C173.879 31.7456 173.452 32.2845 172.794 32.9424C172.136 33.5863 171.331 34.1602 170.379 34.6641C169.428 35.168 168.434 35.4199 167.398 35.4199C166.236 35.4199 165.354 35.077 164.752 34.3911C164.165 33.7052 163.871 32.8164 163.871 31.7246C163.871 31.1087 163.962 30.4858 164.144 29.856L163.514 29.667C163.122 31.8786 162.289 33.3903 161.015 34.2021C159.741 35.014 158.335 35.4199 156.795 35.4199C155.787 35.4199 154.814 35.14 153.876 34.5801C152.939 34.0062 152.176 33.1803 151.588 32.1025C151 31.0107 150.706 29.737 150.706 28.2812C150.706 25.9577 151.287 24.194 152.449 22.9902C153.611 21.7725 155.297 21.1636 157.509 21.1636ZM159.902 29.1631C160.252 29.0931 160.665 28.8971 161.141 28.5752C161.631 28.2533 162.065 27.8683 162.443 27.4204C162.821 26.9725 163.045 26.5456 163.115 26.1396L162.989 25.6357C162.247 25.5378 161.456 25.4888 160.616 25.4888C159.902 25.4888 159.412 25.5448 159.146 25.6567C158.699 26.1606 158.475 26.7205 158.475 27.3364C158.475 27.7843 158.587 28.1903 158.811 28.5542C159.049 28.9181 159.412 29.1211 159.902 29.1631ZM189.213 25.9717C188.205 21.8145 187.316 18.3361 186.546 15.5366C185.777 12.7231 185.161 10.9735 184.699 10.2876L182.599 10.1406C182.193 9.07682 181.906 7.76807 181.738 6.21436C181.976 5.4445 182.424 4.77962 183.082 4.21973C183.74 3.64583 184.51 3.21191 185.392 2.91797C186.273 2.62402 187.162 2.47705 188.058 2.47705C190.102 2.47705 191.627 3.41488 192.635 5.29053C193.097 6.14437 193.489 7.17318 193.811 8.37695C194.133 9.56673 194.434 10.9805 194.714 12.6182C195.176 15.3757 195.498 17.8532 195.68 20.0508C195.862 22.2344 196.009 24.5579 196.121 27.0215L196.205 28.9111H196.52C196.869 28.1413 197.254 26.4826 197.674 23.9351C198.094 21.3875 198.458 18.693 198.766 15.8516C199.074 12.9961 199.242 10.8755 199.27 9.48975L196.625 9.09082C196.429 8.34896 196.303 7.68408 196.247 7.09619C196.191 6.5083 196.163 5.79443 196.163 4.95459C196.457 4.59066 196.946 4.21273 197.632 3.8208C198.318 3.42887 199.116 3.09993 200.026 2.83398C200.936 2.56803 201.839 2.43506 202.734 2.43506C203.938 2.43506 205.023 2.63802 205.989 3.04395C206.969 3.43587 207.745 4.02376 208.319 4.80762C208.907 5.59147 209.208 6.55029 209.222 7.68408V10.9175C209.852 13.367 210.398 16.2435 210.86 19.5469C211.336 22.8363 211.686 25.9507 211.91 28.8901H212.141C212.477 28.1063 212.854 26.4406 213.274 23.8931C213.708 21.3315 214.086 18.637 214.408 15.8096C214.73 12.9681 214.898 10.8615 214.912 9.48975L212.435 9.09082C212.239 8.34896 212.113 7.68408 212.057 7.09619C212.001 6.5083 211.973 5.79443 211.973 4.95459C212.253 4.59066 212.743 4.21273 213.442 3.8208C214.142 3.42887 214.947 3.09993 215.857 2.83398C216.781 2.56803 217.691 2.43506 218.586 2.43506C220.42 2.43506 221.792 2.91097 222.702 3.86279C223.611 4.81462 224.066 6.26335 224.066 8.20898C224.066 10.0566 223.758 12.4362 223.143 15.3477C222.527 18.2591 221.757 20.9956 220.833 23.5571C220.035 25.7967 219.251 27.7354 218.481 29.373C217.712 30.9967 216.76 32.5924 215.626 34.1602C215.164 34.6361 214.555 34.965 213.799 35.147C213.057 35.3289 212.288 35.4199 211.49 35.4199C208.732 35.4199 206.696 34.888 205.38 33.8242L205.947 29.52L204.582 22.4443C204.26 20.5827 204.05 19.099 203.952 17.9932L203.679 17.9722L203.616 20.6387C203.154 23.3822 202.587 25.9297 201.916 28.2812C201.258 30.6188 200.502 32.5785 199.648 34.1602C199.242 34.6221 198.682 34.944 197.968 35.126C197.254 35.3219 196.527 35.4199 195.785 35.4199C192.915 35.4199 190.893 34.895 189.717 33.8452L190.179 29.8979L189.213 25.9717ZM232.675 21.1636C233.501 21.1636 234.41 21.2476 235.404 21.4155C236.412 21.5835 237.336 21.7865 238.176 22.0244V21.3735C238.176 20.9396 238.162 20.4567 238.134 19.9248C238.12 19.3929 238.092 19.043 238.05 18.875C237.924 18.637 237.56 18.3921 236.958 18.1401C236.37 17.8882 235.404 17.7622 234.061 17.7622C233.235 17.7622 232.381 17.8672 231.499 18.0771C230.631 18.2731 229.665 18.5391 228.602 18.875C228.028 17.9232 227.566 17.0203 227.216 16.1665C226.88 15.2987 226.712 14.4308 226.712 13.563C226.712 13.297 226.733 13.0311 226.775 12.7651C229.042 11.0015 231.975 10.1196 235.572 10.1196C237.56 10.1196 239.324 10.3436 240.863 10.7915C242.403 11.2394 243.67 12.1073 244.664 13.395C245.657 14.6828 246.154 16.5094 246.154 18.875C246.154 21.1846 245.881 23.4242 245.335 25.5938C244.804 27.7493 244.531 28.8481 244.517 28.8901L247.561 27.5884C247.967 28.0223 248.324 28.5542 248.632 29.1841C248.954 29.8 249.157 30.5138 249.241 31.3257C249.045 31.7456 248.618 32.2845 247.96 32.9424C247.302 33.5863 246.497 34.1602 245.545 34.6641C244.594 35.168 243.6 35.4199 242.564 35.4199C241.402 35.4199 240.52 35.077 239.918 34.3911C239.331 33.7052 239.037 32.8164 239.037 31.7246C239.037 31.1087 239.128 30.4858 239.31 29.856L238.68 29.667C238.288 31.8786 237.455 33.3903 236.181 34.2021C234.907 35.014 233.501 35.4199 231.961 35.4199C230.953 35.4199 229.98 35.14 229.042 34.5801C228.105 34.0062 227.342 33.1803 226.754 32.1025C226.166 31.0107 225.872 29.737 225.872 28.2812C225.872 25.9577 226.453 24.194 227.615 22.9902C228.777 21.7725 230.463 21.1636 232.675 21.1636ZM235.068 29.1631C235.418 29.0931 235.831 28.8971 236.307 28.5752C236.797 28.2533 237.231 27.8683 237.609 27.4204C237.987 26.9725 238.211 26.5456 238.281 26.1396L238.155 25.6357C237.413 25.5378 236.622 25.4888 235.782 25.4888C235.068 25.4888 234.578 25.5448 234.312 25.6567C233.865 26.1606 233.641 26.7205 233.641 27.3364C233.641 27.7843 233.753 28.1903 233.977 28.5542C234.215 28.9181 234.578 29.1211 235.068 29.1631ZM252.285 27.6934C252.285 25.4118 252.313 23.6901 252.369 22.5283C252.425 21.3525 252.572 19.6309 252.81 17.3633L250.375 17.0483C250.081 16.1385 249.885 15.3267 249.787 14.6128C249.703 13.8989 249.661 12.9751 249.661 11.8413C249.885 11.6453 250.256 11.4144 250.773 11.1484C251.305 10.8685 251.935 10.6305 252.663 10.4346C253.391 10.2246 254.126 10.1196 254.868 10.1196C256.561 10.1196 257.758 10.4836 258.458 11.2114C259.172 11.9393 259.529 13.0311 259.529 14.4868C259.529 15.2987 259.41 16.3975 259.172 17.7832C258.78 20.0088 258.584 21.1776 258.584 21.2896C258.584 21.3595 258.633 21.4295 258.731 21.4995C258.829 21.5555 258.934 21.5835 259.046 21.5835C259.172 21.5835 259.256 21.5345 259.298 21.4365C259.858 19.2109 260.418 17.3493 260.978 15.8516C261.537 14.3538 262.384 13.0241 263.518 11.8623C264.652 10.7005 266.122 10.1196 267.927 10.1196C270.167 10.1196 271.777 10.8055 272.756 12.1772C273.736 13.535 274.226 15.2497 274.226 17.3213C274.226 19.1689 274.009 20.9536 273.575 22.6753C273.141 24.383 272.602 26.1676 271.958 28.0293C271.986 27.9593 271.889 28.2323 271.665 28.8481L271.707 28.8901L274.772 27.6304C275.864 28.5682 276.501 29.814 276.683 31.3677C276.683 31.4657 276.368 31.8646 275.738 32.5645C275.122 33.2643 274.303 33.9152 273.281 34.5171C272.259 35.119 271.084 35.4199 269.754 35.4199C268.424 35.4199 267.339 35.063 266.5 34.3491C265.66 33.6353 265.24 32.4175 265.24 30.6958C265.24 29.3241 265.296 27.4904 265.408 25.1948C265.52 22.8993 265.632 21.0516 265.744 19.6519C265.38 19.2599 264.932 19.05 264.4 19.022C263.91 19.6519 263.189 20.9116 262.237 22.8013C261.285 24.6909 260.614 26.1047 260.222 27.0425C260.194 27.2384 260.18 27.4274 260.18 27.6094C260.18 28.3092 260.285 29.2541 260.495 30.4438C260.705 31.6196 260.964 32.7184 261.271 33.7402C261.02 34.2161 260.502 34.6151 259.718 34.937C258.934 35.259 257.968 35.4199 256.82 35.4199C255.785 35.4199 254.952 35.3359 254.322 35.168C253.706 35 253.272 34.825 253.02 34.6431C252.768 34.4471 252.642 34.3281 252.642 34.2861C252.628 34.1602 252.593 33.8312 252.537 33.2993C252.481 32.7534 252.425 31.9976 252.369 31.0317C252.313 30.0519 252.285 28.9391 252.285 27.6934ZM290.582 38.3384C291.52 38.3384 292.332 38.2334 293.018 38.0234C293.228 37.8135 293.375 37.5685 293.458 37.2886C293.542 37.0226 293.584 36.7707 293.584 36.5327C293.584 36.2808 293.563 36.0918 293.521 35.9658C293.479 35.8538 293.41 35.7489 293.312 35.6509C292.724 35.5529 292.031 35.4829 291.233 35.4409C290.449 35.4129 289.98 35.3919 289.826 35.3779C287.881 35.2939 286.299 35.154 285.081 34.958C283.863 34.748 282.82 34.3001 281.953 33.6143C281.085 32.9144 280.651 31.8646 280.651 30.4648C280.651 29.709 280.896 29.0021 281.386 28.3442C281.876 27.6724 282.513 27.0845 283.296 26.5806C281.701 25.9227 280.42 24.9359 279.454 23.6201C278.502 22.2904 278.026 20.5757 278.026 18.4761C278.026 16.3905 278.558 14.7178 279.622 13.458C280.7 12.1842 282.023 11.2884 283.59 10.7705C285.158 10.2526 286.754 9.99365 288.377 9.99365C289.399 9.99365 290.4 10.0916 291.38 10.2876C292.36 10.4836 293.27 10.7635 294.109 11.1274L293.207 5.79443C294.06 5.27653 295.124 5.01758 296.398 5.01758C297.322 5.01758 298.183 5.17155 298.98 5.47949C299.778 5.78743 300.387 6.22835 300.807 6.80225C300.835 6.94222 300.849 7.16618 300.849 7.47412C300.849 8.62191 300.639 9.90267 300.219 11.3164C299.813 12.7161 299.106 13.8429 298.099 14.6968C298.603 15.7046 298.854 16.7894 298.854 17.9512C298.854 19.6589 298.526 21.2336 297.868 22.6753C297.224 24.117 296.146 25.2928 294.634 26.2026C293.123 27.0985 291.156 27.5464 288.734 27.5464C288.035 27.5464 287.307 27.5044 286.551 27.4204C286.509 28.1203 286.677 28.8201 287.055 29.52C288.944 29.1561 290.47 28.9671 291.632 28.9531L293.06 28.9321C294.991 28.9321 296.454 29.0511 297.448 29.2891C298.54 29.555 299.351 30.1569 299.883 31.0947C300.429 32.0326 300.702 33.1733 300.702 34.5171C300.702 36.6167 300.058 38.3804 298.771 39.8081C297.497 41.2498 295.838 42.3206 293.794 43.0205C291.765 43.7204 289.609 44.0703 287.328 44.0703C285.214 44.0703 283.331 43.7134 281.68 42.9995C280.028 42.2856 278.985 40.9769 278.551 39.0732C279.013 37.4635 279.895 36.2458 281.197 35.4199C282.946 36.4697 284.619 37.2186 286.215 37.6665C287.825 38.1144 289.28 38.3384 290.582 38.3384ZM289.301 22.3604C290.309 22.3604 290.897 22.2974 291.065 22.1714C291.443 21.4155 291.632 20.6387 291.632 19.8408C291.632 19.015 291.443 18.2381 291.065 17.5103C290.883 17.3563 290.477 17.2373 289.847 17.1533C289.231 17.0693 288.559 17.0273 287.832 17.0273C286.922 17.0273 286.313 17.0833 286.005 17.1953C285.571 17.9652 285.354 18.742 285.354 19.5259C285.354 20.3237 285.557 21.0796 285.963 21.7935C286.271 21.9894 286.733 22.1364 287.349 22.2344C287.979 22.3184 288.629 22.3604 289.301 22.3604Z" fill="black"/>
</svg>
