<svg width="337" height="50" viewBox="0 0 337 50" fill="none" xmlns="http://www.w3.org/2000/svg">
<path d="M2.73438 31.4766C3.6875 31.7891 4.55469 32.0391 5.33594 32.2266C6.85156 26.1328 8.57812 18.9375 10.5156 10.6406L4.86719 10.0312C4.50781 9.04688 4.32812 7.92969 4.32812 6.67969C4.32812 5.72656 4.4375 4.79688 4.65625 3.89062C6.92188 3.45312 9.53125 3.14062 12.4844 2.95312C15.4531 2.75 18 2.64844 20.125 2.64844C21.6562 2.64844 22.8047 2.65625 23.5703 2.67188L25.0469 3.51562C27.6719 10.7188 30.3359 20.4609 33.0391 32.7422C33.0703 32.8672 33.125 33.1172 33.2031 33.4922C33.2969 33.8672 33.3672 34.2266 33.4141 34.5703C33.4609 34.8984 33.4844 35.2109 33.4844 35.5078C33.4844 36.8203 33.0156 37.8828 32.0781 38.6953C30.7656 39.2109 29.1797 39.4688 27.3203 39.4688C26.4453 39.4688 25.5625 39.375 24.6719 39.1875C23.7812 39 23.1797 38.7109 22.8672 38.3203L23.1484 32.2734L22.5625 29.1328C21.5469 29.1953 20.3516 29.2266 18.9766 29.2266C17.5078 29.2266 16.1328 29.1797 14.8516 29.0859L14.5703 30.3516C13.9609 33.0703 13.4609 35 13.0703 36.1406C12.6953 37.2812 12.1328 38.125 11.3828 38.6719C10.6484 39.2188 9.54688 39.4922 8.07812 39.4922C7.125 39.4922 6.16406 39.3672 5.19531 39.1172C4.22656 38.8828 3.35156 38.5625 2.57031 38.1562C1.78906 37.75 1.20312 37.3125 0.8125 36.8438C0.8125 35.7188 0.984375 34.6484 1.32812 33.6328C1.67188 32.6172 2.14062 31.8984 2.73438 31.4766ZM19.1641 10.8516H18.0859L16.3984 22.4062H21.6484L19.1641 10.8516ZM38.0547 30.8438C38.0547 28.2969 38.0859 26.375 38.1484 25.0781C38.2109 23.7656 38.375 21.8438 38.6406 19.3125L35.9453 18.9609C35.6172 17.9453 35.3984 17.0391 35.2891 16.2422C35.1953 15.4453 35.1484 14.4141 35.1484 13.1484C35.3984 12.9297 35.8125 12.6719 36.3906 12.375C36.9844 12.0625 37.6797 11.7969 38.4766 11.5781C39.2891 11.3438 40.1094 11.2266 40.9375 11.2266C42.8281 11.2266 44.1641 11.6328 44.9453 12.4453C45.7422 13.2578 46.1406 14.4766 46.1406 16.1016C46.1406 17.0078 46.0078 18.2344 45.7422 19.7812C45.3047 22.2656 45.0859 23.5703 45.0859 23.6953C45.0859 23.7734 45.1406 23.8516 45.25 23.9297C45.3594 23.9922 45.4766 24.0234 45.6016 24.0234C45.7422 24.0234 45.8359 23.9688 45.8828 23.8594C45.8672 23.9219 46.0469 23.1328 46.4219 21.4922C46.875 19.3359 47.3359 17.5781 47.8047 16.2188C48.2891 14.8594 49.0547 13.6953 50.1016 12.7266C51.1484 11.7578 52.5703 11.2734 54.3672 11.2734C56.5859 11.2734 58.1875 11.9141 59.1719 13.1953C60.1562 14.4609 60.6484 16.1484 60.6484 18.2578C60.6484 19.9297 60.3672 21.7891 59.8047 23.8359C59.8047 23.9141 59.8594 23.9922 59.9688 24.0703C60.0781 24.1328 60.1953 24.1641 60.3203 24.1641C60.4609 24.1641 60.5547 24.1094 60.6016 24L60.9297 22.6875C61.4922 20.375 62.0469 18.4531 62.5938 16.9219C63.1562 15.3906 63.9922 14.0703 65.1016 12.9609C66.2266 11.8359 67.6875 11.2734 69.4844 11.2734C71.8438 11.2734 73.5391 12.0312 74.5703 13.5469C75.6172 15.0625 76.1406 16.9688 76.1406 19.2656C76.1406 20.8906 75.9844 22.5234 75.6719 24.1641C75.375 25.8047 75.0547 27.1797 74.7109 28.2891C74.3828 29.3984 73.9766 30.6797 73.4922 32.1328L73.5391 32.1797L77.0078 30.7266C78.2266 31.7734 78.9375 33.1641 79.1406 34.8984C79.1406 35.0078 78.7891 35.4609 78.0859 36.2578C77.3828 37.0391 76.4531 37.7734 75.2969 38.4609C74.1562 39.1328 72.8438 39.4688 71.3594 39.4688C69.875 39.4688 68.6641 39.0703 67.7266 38.2734C66.7891 37.4766 66.3203 36.1172 66.3203 34.1953C66.3203 32.0547 66.3594 29.8594 66.4375 27.6094C66.5312 25.3438 66.6641 23.3125 66.8359 21.5156C66.5703 21.2969 66.2031 21.1797 65.7344 21.1641C65.2656 21.6172 64.6797 22.6094 63.9766 24.1406C63.2734 25.6562 62.625 27.2812 62.0312 29.0156C61.4375 30.7344 61.0625 32.0781 60.9062 33.0469C61.125 34.5781 61.4609 36.0938 61.9141 37.5938C61.6328 38.125 61.0547 38.5703 60.1797 38.9297C59.3047 39.2891 58.2266 39.4688 56.9453 39.4688C55.7891 39.4688 54.8828 39.375 54.2266 39.1875C53.5703 39 53.1172 38.8047 52.8672 38.6016C52.6328 38.3984 52.5156 38.2656 52.5156 38.2031C52.5 38.0625 52.4609 37.6953 52.3984 37.1016C52.3359 36.4922 52.2734 35.6484 52.2109 34.5703C52.1484 33.4766 52.1172 32.2344 52.1172 30.8438C52.1172 29.5156 52.2188 27.8516 52.4219 25.8516C52.4375 25.6016 52.4844 25.0078 52.5625 24.0703C52.6406 23.1328 52.6797 22.2812 52.6797 21.5156C52.4141 21.2969 52.0469 21.1797 51.5781 21.1641C51.3125 21.3672 50.5703 22.6641 49.3516 25.0547C48.1328 27.4453 47.3203 29.1328 46.9141 30.1172C46.8828 30.3359 46.8672 30.5469 46.8672 30.75C46.8672 31.5312 46.9844 32.5859 47.2188 33.9141C47.4531 35.2266 47.7422 36.4531 48.0859 37.5938C47.8047 38.125 47.2266 38.5703 46.3516 38.9297C45.4766 39.2891 44.3984 39.4688 43.1172 39.4688C41.9609 39.4688 41.0312 39.375 40.3281 39.1875C39.6406 39 39.1562 38.8047 38.875 38.6016C38.5938 38.3828 38.4531 38.25 38.4531 38.2031C38.4375 38.0625 38.3984 37.6953 38.3359 37.1016C38.2734 36.4922 38.2109 35.6484 38.1484 34.5703C38.0859 33.4766 38.0547 32.2344 38.0547 30.8438ZM88.1875 23.5547C89.1094 23.5547 90.125 23.6484 91.2344 23.8359C92.3594 24.0234 93.3906 24.25 94.3281 24.5156V23.7891C94.3281 23.3047 94.3125 22.7656 94.2812 22.1719C94.2656 21.5781 94.2344 21.1875 94.1875 21C94.0469 20.7344 93.6406 20.4609 92.9688 20.1797C92.3125 19.8984 91.2344 19.7578 89.7344 19.7578C88.8125 19.7578 87.8594 19.875 86.875 20.1094C85.9062 20.3281 84.8281 20.625 83.6406 21C83 19.9375 82.4844 18.9297 82.0938 17.9766C81.7188 17.0078 81.5312 16.0391 81.5312 15.0703C81.5312 14.7734 81.5547 14.4766 81.6016 14.1797C84.1328 12.2109 87.4062 11.2266 91.4219 11.2266C93.6406 11.2266 95.6094 11.4766 97.3281 11.9766C99.0469 12.4766 100.461 13.4453 101.57 14.8828C102.68 16.3203 103.234 18.3594 103.234 21C103.234 23.5781 102.93 26.0781 102.32 28.5C101.727 30.9062 101.422 32.1328 101.406 32.1797L104.805 30.7266C105.258 31.2109 105.656 31.8047 106 32.5078C106.359 33.1953 106.586 33.9922 106.68 34.8984C106.461 35.3672 105.984 35.9688 105.25 36.7031C104.516 37.4219 103.617 38.0625 102.555 38.625C101.492 39.1875 100.383 39.4688 99.2266 39.4688C97.9297 39.4688 96.9453 39.0859 96.2734 38.3203C95.6172 37.5547 95.2891 36.5625 95.2891 35.3438C95.2891 34.6562 95.3906 33.9609 95.5938 33.2578L94.8906 33.0469C94.4531 35.5156 93.5234 37.2031 92.1016 38.1094C90.6797 39.0156 89.1094 39.4688 87.3906 39.4688C86.2656 39.4688 85.1797 39.1562 84.1328 38.5312C83.0859 37.8906 82.2344 36.9688 81.5781 35.7656C80.9219 34.5469 80.5938 33.125 80.5938 31.5C80.5938 28.9062 81.2422 26.9375 82.5391 25.5938C83.8359 24.2344 85.7188 23.5547 88.1875 23.5547ZM90.8594 32.4844C91.25 32.4062 91.7109 32.1875 92.2422 31.8281C92.7891 31.4688 93.2734 31.0391 93.6953 30.5391C94.1172 30.0391 94.3672 29.5625 94.4453 29.1094L94.3047 28.5469C93.4766 28.4375 92.5938 28.3828 91.6562 28.3828C90.8594 28.3828 90.3125 28.4453 90.0156 28.5703C89.5156 29.1328 89.2656 29.7578 89.2656 30.4453C89.2656 30.9453 89.3906 31.3984 89.6406 31.8047C89.9062 32.2109 90.3125 32.4375 90.8594 32.4844ZM110.078 30.8438C110.078 28.2969 110.109 26.375 110.172 25.0781C110.234 23.7656 110.398 21.8438 110.664 19.3125L107.945 18.9609C107.617 17.9453 107.398 17.0391 107.289 16.2422C107.195 15.4453 107.148 14.4141 107.148 13.1484C107.398 12.9297 107.812 12.6719 108.391 12.375C108.984 12.0625 109.688 11.7969 110.5 11.5781C111.312 11.3438 112.133 11.2266 112.961 11.2266C114.852 11.2266 116.188 11.6328 116.969 12.4453C117.766 13.2578 118.164 14.4766 118.164 16.1016C118.164 17.0078 118.031 18.2344 117.766 19.7812C117.328 22.2656 117.109 23.5703 117.109 23.6953C117.109 23.7734 117.164 23.8516 117.273 23.9297C117.383 23.9922 117.5 24.0234 117.625 24.0234C117.766 24.0234 117.859 23.9688 117.906 23.8594C118.531 21.375 119.156 19.2969 119.781 17.625C120.406 15.9531 121.352 14.4688 122.617 13.1719C123.883 11.875 125.523 11.2266 127.539 11.2266C130.039 11.2266 131.836 11.9922 132.93 13.5234C134.023 15.0391 134.57 16.9531 134.57 19.2656C134.57 21.3281 134.328 23.3203 133.844 25.2422C133.359 27.1484 132.758 29.1406 132.039 31.2188C132.07 31.1406 131.961 31.4453 131.711 32.1328L131.758 32.1797L135.18 30.7734C136.398 31.8203 137.109 33.2109 137.312 34.9453C137.312 35.0547 136.961 35.5 136.258 36.2812C135.57 37.0625 134.656 37.7891 133.516 38.4609C132.375 39.1328 131.062 39.4688 129.578 39.4688C128.094 39.4688 126.883 39.0703 125.945 38.2734C125.008 37.4766 124.539 36.1172 124.539 34.1953C124.539 32.6641 124.602 30.6172 124.727 28.0547C124.852 25.4922 124.977 23.4297 125.102 21.8672C124.695 21.4297 124.195 21.1953 123.602 21.1641C123.055 21.8672 122.25 23.2734 121.188 25.3828C120.125 27.4922 119.375 29.0703 118.938 30.1172C118.906 30.3359 118.891 30.5469 118.891 30.75C118.891 31.5312 119.008 32.5859 119.242 33.9141C119.477 35.2266 119.766 36.4531 120.109 37.5938C119.828 38.125 119.25 38.5703 118.375 38.9297C117.5 39.2891 116.422 39.4688 115.141 39.4688C113.984 39.4688 113.055 39.375 112.352 39.1875C111.664 39 111.18 38.8047 110.898 38.6016C110.617 38.3828 110.477 38.25 110.477 38.2031C110.461 38.0625 110.422 37.6953 110.359 37.1016C110.297 36.4922 110.234 35.6484 110.172 34.5703C110.109 33.4766 110.078 32.2344 110.078 30.8438ZM139.211 25.4766C139.211 23.1016 139.539 20.8281 140.195 18.6562C140.867 16.4844 141.914 14.7031 143.336 13.3125C144.773 11.9219 146.578 11.2266 148.75 11.2266C151.188 11.2266 153.516 12 155.734 13.5469L156.109 13.3125C156.062 11.4844 155.836 9.82812 155.43 8.34375L150.672 8.03906C150.453 7.75781 150.281 7.34375 150.156 6.79688C150.031 6.23438 149.969 5.65625 149.969 5.0625C149.969 4.26562 150.062 3.57813 150.25 3C151.188 2.32812 152.391 1.82031 153.859 1.47656C155.328 1.13281 156.797 0.960938 158.266 0.960938C159.891 0.960938 161.117 1.30469 161.945 1.99219C162.773 2.66406 163.328 3.6875 163.609 5.0625C163.906 6.42188 164.055 8.3125 164.055 10.7344C164.055 13.9219 163.922 17.5391 163.656 21.5859C163.391 25.6328 163.047 28.9375 162.625 31.5L162.531 31.8984L165.25 30.7266C165.703 31.2109 166.102 31.8047 166.445 32.5078C166.805 33.1953 167.031 33.9922 167.125 34.8984C166.906 35.3672 166.43 35.9688 165.695 36.7031C164.961 37.4219 164.062 38.0625 163 38.625C161.938 39.1875 160.828 39.4688 159.672 39.4688C158.375 39.4688 157.375 39.0859 156.672 38.3203C155.984 37.5391 155.641 36.5469 155.641 35.3438C155.641 35.0312 155.719 34.3906 155.875 33.4219C156.047 32.4531 156.188 31.7812 156.297 31.4062L155.594 31.1953C154.797 33.9922 153.742 36.0703 152.43 37.4297C151.117 38.7891 149.492 39.4688 147.555 39.4688C145.477 39.4688 143.812 38.7812 142.562 37.4062C141.328 36.0156 140.461 34.2734 139.961 32.1797C139.461 30.0859 139.211 27.8516 139.211 25.4766ZM155.289 25.0547C155.383 24.4922 155.43 23.8359 155.43 23.0859C155.43 22.6016 155.406 22.1406 155.359 21.7031C155.328 21.2656 155.289 20.9531 155.242 20.7656C154.617 20.3125 153.906 19.9922 153.109 19.8047C152.328 19.6172 151.609 19.5234 150.953 19.5234C150.547 19.5234 150.109 19.5625 149.641 19.6406C149.328 19.9531 149.078 20.6328 148.891 21.6797C148.703 22.7109 148.609 23.875 148.609 25.1719C148.609 26.5625 148.703 27.9141 148.891 29.2266C149.094 30.5234 149.375 31.5391 149.734 32.2734C149.984 32.2734 150.469 31.8906 151.188 31.125C151.922 30.3438 152.68 29.3906 153.461 28.2656C154.242 27.125 154.852 26.0547 155.289 25.0547ZM176.266 23.5547C177.188 23.5547 178.203 23.6484 179.312 23.8359C180.438 24.0234 181.469 24.25 182.406 24.5156V23.7891C182.406 23.3047 182.391 22.7656 182.359 22.1719C182.344 21.5781 182.312 21.1875 182.266 21C182.125 20.7344 181.719 20.4609 181.047 20.1797C180.391 19.8984 179.312 19.7578 177.812 19.7578C176.891 19.7578 175.938 19.875 174.953 20.1094C173.984 20.3281 172.906 20.625 171.719 21C171.078 19.9375 170.562 18.9297 170.172 17.9766C169.797 17.0078 169.609 16.0391 169.609 15.0703C169.609 14.7734 169.633 14.4766 169.68 14.1797C172.211 12.2109 175.484 11.2266 179.5 11.2266C181.719 11.2266 183.688 11.4766 185.406 11.9766C187.125 12.4766 188.539 13.4453 189.648 14.8828C190.758 16.3203 191.312 18.3594 191.312 21C191.312 23.5781 191.008 26.0781 190.398 28.5C189.805 30.9062 189.5 32.1328 189.484 32.1797L192.883 30.7266C193.336 31.2109 193.734 31.8047 194.078 32.5078C194.438 33.1953 194.664 33.9922 194.758 34.8984C194.539 35.3672 194.062 35.9688 193.328 36.7031C192.594 37.4219 191.695 38.0625 190.633 38.625C189.57 39.1875 188.461 39.4688 187.305 39.4688C186.008 39.4688 185.023 39.0859 184.352 38.3203C183.695 37.5547 183.367 36.5625 183.367 35.3438C183.367 34.6562 183.469 33.9609 183.672 33.2578L182.969 33.0469C182.531 35.5156 181.602 37.2031 180.18 38.1094C178.758 39.0156 177.188 39.4688 175.469 39.4688C174.344 39.4688 173.258 39.1562 172.211 38.5312C171.164 37.8906 170.312 36.9688 169.656 35.7656C169 34.5469 168.672 33.125 168.672 31.5C168.672 28.9062 169.32 26.9375 170.617 25.5938C171.914 24.2344 173.797 23.5547 176.266 23.5547ZM178.938 32.4844C179.328 32.4062 179.789 32.1875 180.32 31.8281C180.867 31.4688 181.352 31.0391 181.773 30.5391C182.195 30.0391 182.445 29.5625 182.523 29.1094L182.383 28.5469C181.555 28.4375 180.672 28.3828 179.734 28.3828C178.938 28.3828 178.391 28.4453 178.094 28.5703C177.594 29.1328 177.344 29.7578 177.344 30.4453C177.344 30.9453 177.469 31.3984 177.719 31.8047C177.984 32.2109 178.391 32.4375 178.938 32.4844ZM211.656 28.9219C210.531 24.2812 209.539 20.3984 208.68 17.2734C207.82 14.1328 207.133 12.1797 206.617 11.4141L204.273 11.25C203.82 10.0625 203.5 8.60156 203.312 6.86719C203.578 6.00781 204.078 5.26563 204.812 4.64062C205.547 4 206.406 3.51562 207.391 3.1875C208.375 2.85938 209.367 2.69531 210.367 2.69531C212.648 2.69531 214.352 3.74219 215.477 5.83594C215.992 6.78906 216.43 7.9375 216.789 9.28125C217.148 10.6094 217.484 12.1875 217.797 14.0156C218.312 17.0938 218.672 19.8594 218.875 22.3125C219.078 24.75 219.242 27.3438 219.367 30.0938L219.461 32.2031H219.812C220.203 31.3438 220.633 29.4922 221.102 26.6484C221.57 23.8047 221.977 20.7969 222.32 17.625C222.664 14.4375 222.852 12.0703 222.883 10.5234L219.93 10.0781C219.711 9.25 219.57 8.50781 219.508 7.85156C219.445 7.19531 219.414 6.39844 219.414 5.46094C219.742 5.05469 220.289 4.63281 221.055 4.19531C221.82 3.75781 222.711 3.39063 223.727 3.09375C224.742 2.79687 225.75 2.64844 226.75 2.64844C228.094 2.64844 229.305 2.875 230.383 3.32812C231.477 3.76563 232.344 4.42188 232.984 5.29688C233.641 6.17187 233.977 7.24219 233.992 8.50781V12.1172C234.695 14.8516 235.305 18.0625 235.82 21.75C236.352 25.4219 236.742 28.8984 236.992 32.1797H237.25C237.625 31.3047 238.047 29.4453 238.516 26.6016C239 23.7422 239.422 20.7344 239.781 17.5781C240.141 14.4062 240.328 12.0547 240.344 10.5234L237.578 10.0781C237.359 9.25 237.219 8.50781 237.156 7.85156C237.094 7.19531 237.062 6.39844 237.062 5.46094C237.375 5.05469 237.922 4.63281 238.703 4.19531C239.484 3.75781 240.383 3.39063 241.398 3.09375C242.43 2.79687 243.445 2.64844 244.445 2.64844C246.492 2.64844 248.023 3.17969 249.039 4.24219C250.055 5.30469 250.562 6.92187 250.562 9.09375C250.562 11.1562 250.219 13.8125 249.531 17.0625C248.844 20.3125 247.984 23.3672 246.953 26.2266C246.062 28.7266 245.188 30.8906 244.328 32.7188C243.469 34.5312 242.406 36.3125 241.141 38.0625C240.625 38.5938 239.945 38.9609 239.102 39.1641C238.273 39.3672 237.414 39.4688 236.523 39.4688C233.445 39.4688 231.172 38.875 229.703 37.6875L230.336 32.8828L228.812 24.9844C228.453 22.9062 228.219 21.25 228.109 20.0156L227.805 19.9922L227.734 22.9688C227.219 26.0312 226.586 28.875 225.836 31.5C225.102 34.1094 224.258 36.2969 223.305 38.0625C222.852 38.5781 222.227 38.9375 221.43 39.1406C220.633 39.3594 219.82 39.4688 218.992 39.4688C215.789 39.4688 213.531 38.8828 212.219 37.7109L212.734 33.3047L211.656 28.9219ZM260.172 23.5547C261.094 23.5547 262.109 23.6484 263.219 23.8359C264.344 24.0234 265.375 24.25 266.312 24.5156V23.7891C266.312 23.3047 266.297 22.7656 266.266 22.1719C266.25 21.5781 266.219 21.1875 266.172 21C266.031 20.7344 265.625 20.4609 264.953 20.1797C264.297 19.8984 263.219 19.7578 261.719 19.7578C260.797 19.7578 259.844 19.875 258.859 20.1094C257.891 20.3281 256.812 20.625 255.625 21C254.984 19.9375 254.469 18.9297 254.078 17.9766C253.703 17.0078 253.516 16.0391 253.516 15.0703C253.516 14.7734 253.539 14.4766 253.586 14.1797C256.117 12.2109 259.391 11.2266 263.406 11.2266C265.625 11.2266 267.594 11.4766 269.312 11.9766C271.031 12.4766 272.445 13.4453 273.555 14.8828C274.664 16.3203 275.219 18.3594 275.219 21C275.219 23.5781 274.914 26.0781 274.305 28.5C273.711 30.9062 273.406 32.1328 273.391 32.1797L276.789 30.7266C277.242 31.2109 277.641 31.8047 277.984 32.5078C278.344 33.1953 278.57 33.9922 278.664 34.8984C278.445 35.3672 277.969 35.9688 277.234 36.7031C276.5 37.4219 275.602 38.0625 274.539 38.625C273.477 39.1875 272.367 39.4688 271.211 39.4688C269.914 39.4688 268.93 39.0859 268.258 38.3203C267.602 37.5547 267.273 36.5625 267.273 35.3438C267.273 34.6562 267.375 33.9609 267.578 33.2578L266.875 33.0469C266.438 35.5156 265.508 37.2031 264.086 38.1094C262.664 39.0156 261.094 39.4688 259.375 39.4688C258.25 39.4688 257.164 39.1562 256.117 38.5312C255.07 37.8906 254.219 36.9688 253.562 35.7656C252.906 34.5469 252.578 33.125 252.578 31.5C252.578 28.9062 253.227 26.9375 254.523 25.5938C255.82 24.2344 257.703 23.5547 260.172 23.5547ZM262.844 32.4844C263.234 32.4062 263.695 32.1875 264.227 31.8281C264.773 31.4688 265.258 31.0391 265.68 30.5391C266.102 30.0391 266.352 29.5625 266.43 29.1094L266.289 28.5469C265.461 28.4375 264.578 28.3828 263.641 28.3828C262.844 28.3828 262.297 28.4453 262 28.5703C261.5 29.1328 261.25 29.7578 261.25 30.4453C261.25 30.9453 261.375 31.3984 261.625 31.8047C261.891 32.2109 262.297 32.4375 262.844 32.4844ZM282.062 30.8438C282.062 28.2969 282.094 26.375 282.156 25.0781C282.219 23.7656 282.383 21.8438 282.648 19.3125L279.93 18.9609C279.602 17.9453 279.383 17.0391 279.273 16.2422C279.18 15.4453 279.133 14.4141 279.133 13.1484C279.383 12.9297 279.797 12.6719 280.375 12.375C280.969 12.0625 281.672 11.7969 282.484 11.5781C283.297 11.3438 284.117 11.2266 284.945 11.2266C286.836 11.2266 288.172 11.6328 288.953 12.4453C289.75 13.2578 290.148 14.4766 290.148 16.1016C290.148 17.0078 290.016 18.2344 289.75 19.7812C289.312 22.2656 289.094 23.5703 289.094 23.6953C289.094 23.7734 289.148 23.8516 289.258 23.9297C289.367 23.9922 289.484 24.0234 289.609 24.0234C289.75 24.0234 289.844 23.9688 289.891 23.8594C290.516 21.375 291.141 19.2969 291.766 17.625C292.391 15.9531 293.336 14.4688 294.602 13.1719C295.867 11.875 297.508 11.2266 299.523 11.2266C302.023 11.2266 303.82 11.9922 304.914 13.5234C306.008 15.0391 306.555 16.9531 306.555 19.2656C306.555 21.3281 306.312 23.3203 305.828 25.2422C305.344 27.1484 304.742 29.1406 304.023 31.2188C304.055 31.1406 303.945 31.4453 303.695 32.1328L303.742 32.1797L307.164 30.7734C308.383 31.8203 309.094 33.2109 309.297 34.9453C309.297 35.0547 308.945 35.5 308.242 36.2812C307.555 37.0625 306.641 37.7891 305.5 38.4609C304.359 39.1328 303.047 39.4688 301.562 39.4688C300.078 39.4688 298.867 39.0703 297.93 38.2734C296.992 37.4766 296.523 36.1172 296.523 34.1953C296.523 32.6641 296.586 30.6172 296.711 28.0547C296.836 25.4922 296.961 23.4297 297.086 21.8672C296.68 21.4297 296.18 21.1953 295.586 21.1641C295.039 21.8672 294.234 23.2734 293.172 25.3828C292.109 27.4922 291.359 29.0703 290.922 30.1172C290.891 30.3359 290.875 30.5469 290.875 30.75C290.875 31.5312 290.992 32.5859 291.227 33.9141C291.461 35.2266 291.75 36.4531 292.094 37.5938C291.812 38.125 291.234 38.5703 290.359 38.9297C289.484 39.2891 288.406 39.4688 287.125 39.4688C285.969 39.4688 285.039 39.375 284.336 39.1875C283.648 39 283.164 38.8047 282.883 38.6016C282.602 38.3828 282.461 38.25 282.461 38.2031C282.445 38.0625 282.406 37.6953 282.344 37.1016C282.281 36.4922 282.219 35.6484 282.156 34.5703C282.094 33.4766 282.062 32.2344 282.062 30.8438ZM324.812 42.7266C325.859 42.7266 326.766 42.6094 327.531 42.375C327.766 42.1406 327.93 41.8672 328.023 41.5547C328.117 41.2578 328.164 40.9766 328.164 40.7109C328.164 40.4297 328.141 40.2188 328.094 40.0781C328.047 39.9531 327.969 39.8359 327.859 39.7266C327.203 39.6172 326.43 39.5391 325.539 39.4922C324.664 39.4609 324.141 39.4375 323.969 39.4219C321.797 39.3281 320.031 39.1719 318.672 38.9531C317.312 38.7188 316.148 38.2188 315.18 37.4531C314.211 36.6719 313.727 35.5 313.727 33.9375C313.727 33.0938 314 32.3047 314.547 31.5703C315.094 30.8203 315.805 30.1641 316.68 29.6016C314.898 28.8672 313.469 27.7656 312.391 26.2969C311.328 24.8125 310.797 22.8984 310.797 20.5547C310.797 18.2266 311.391 16.3594 312.578 14.9531C313.781 13.5312 315.258 12.5312 317.008 11.9531C318.758 11.375 320.539 11.0859 322.352 11.0859C323.492 11.0859 324.609 11.1953 325.703 11.4141C326.797 11.6328 327.812 11.9453 328.75 12.3516L327.742 6.39844C328.695 5.82031 329.883 5.53125 331.305 5.53125C332.336 5.53125 333.297 5.70312 334.188 6.04688C335.078 6.39063 335.758 6.88281 336.227 7.52344C336.258 7.67969 336.273 7.92969 336.273 8.27344C336.273 9.55469 336.039 10.9844 335.57 12.5625C335.117 14.125 334.328 15.3828 333.203 16.3359C333.766 17.4609 334.047 18.6719 334.047 19.9688C334.047 21.875 333.68 23.6328 332.945 25.2422C332.227 26.8516 331.023 28.1641 329.336 29.1797C327.648 30.1797 325.453 30.6797 322.75 30.6797C321.969 30.6797 321.156 30.6328 320.312 30.5391C320.266 31.3203 320.453 32.1016 320.875 32.8828C322.984 32.4766 324.688 32.2656 325.984 32.25L327.578 32.2266C329.734 32.2266 331.367 32.3594 332.477 32.625C333.695 32.9219 334.602 33.5938 335.195 34.6406C335.805 35.6875 336.109 36.9609 336.109 38.4609C336.109 40.8047 335.391 42.7734 333.953 44.3672C332.531 45.9766 330.68 47.1719 328.398 47.9531C326.133 48.7344 323.727 49.125 321.18 49.125C318.82 49.125 316.719 48.7266 314.875 47.9297C313.031 47.1328 311.867 45.6719 311.383 43.5469C311.898 41.75 312.883 40.3906 314.336 39.4688C316.289 40.6406 318.156 41.4766 319.938 41.9766C321.734 42.4766 323.359 42.7266 324.812 42.7266ZM323.383 24.8906C324.508 24.8906 325.164 24.8203 325.352 24.6797C325.773 23.8359 325.984 22.9688 325.984 22.0781C325.984 21.1562 325.773 20.2891 325.352 19.4766C325.148 19.3047 324.695 19.1719 323.992 19.0781C323.305 18.9844 322.555 18.9375 321.742 18.9375C320.727 18.9375 320.047 19 319.703 19.125C319.219 19.9844 318.977 20.8516 318.977 21.7266C318.977 22.6172 319.203 23.4609 319.656 24.2578C320 24.4766 320.516 24.6406 321.203 24.75C321.906 24.8438 322.633 24.8906 323.383 24.8906Z" fill="black"/>
</svg>
