<svg width="672" height="98" viewBox="0 0 672 98" fill="none" xmlns="http://www.w3.org/2000/svg">
<path d="M3.96875 61.9531C5.875 62.5781 7.60938 63.0781 9.17188 63.4531C12.2031 51.2656 15.6562 36.875 19.5312 20.2812L8.23438 19.0625C7.51562 17.0938 7.15625 14.8594 7.15625 12.3594C7.15625 10.4531 7.375 8.59375 7.8125 6.78125C12.3438 5.90625 17.5625 5.28125 23.4688 4.90625C29.4062 4.5 34.5 4.29688 38.75 4.29688C41.8125 4.29688 44.1094 4.3125 45.6406 4.34375L48.5938 6.03125C53.8438 20.4375 59.1719 39.9219 64.5781 64.4844C64.6406 64.7344 64.75 65.2344 64.9062 65.9844C65.0938 66.7344 65.2344 67.4531 65.3281 68.1406C65.4219 68.7969 65.4688 69.4219 65.4688 70.0156C65.4688 72.6406 64.5312 74.7656 62.6562 76.3906C60.0312 77.4219 56.8594 77.9375 53.1406 77.9375C51.3906 77.9375 49.625 77.75 47.8438 77.375C46.0625 77 44.8594 76.4219 44.2344 75.6406L44.7969 63.5469L43.625 57.2656C41.5938 57.3906 39.2031 57.4531 36.4531 57.4531C33.5156 57.4531 30.7656 57.3594 28.2031 57.1719L27.6406 59.7031C26.4219 65.1406 25.4219 69 24.6406 71.2812C23.8906 73.5625 22.7656 75.25 21.2656 76.3438C19.7969 77.4375 17.5938 77.9844 14.6562 77.9844C12.75 77.9844 10.8281 77.7344 8.89062 77.2344C6.95312 76.7656 5.20312 76.125 3.64062 75.3125C2.07812 74.5 0.90625 73.625 0.125 72.6875C0.125 70.4375 0.46875 68.2969 1.15625 66.2656C1.84375 64.2344 2.78125 62.7969 3.96875 61.9531ZM36.8281 20.7031H34.6719L31.2969 43.8125H41.7969L36.8281 20.7031ZM74.6094 60.6875C74.6094 55.5938 74.6719 51.75 74.7969 49.1562C74.9219 46.5312 75.25 42.6875 75.7812 37.625L70.3906 36.9219C69.7344 34.8906 69.2969 33.0781 69.0781 31.4844C68.8906 29.8906 68.7969 27.8281 68.7969 25.2969C69.2969 24.8594 70.125 24.3438 71.2812 23.75C72.4688 23.125 73.8594 22.5938 75.4531 22.1562C77.0781 21.6875 78.7188 21.4531 80.375 21.4531C84.1562 21.4531 86.8281 22.2656 88.3906 23.8906C89.9844 25.5156 90.7812 27.9531 90.7812 31.2031C90.7812 33.0156 90.5156 35.4688 89.9844 38.5625C89.1094 43.5312 88.6719 46.1406 88.6719 46.3906C88.6719 46.5469 88.7812 46.7031 89 46.8594C89.2188 46.9844 89.4531 47.0469 89.7031 47.0469C89.9844 47.0469 90.1719 46.9375 90.2656 46.7188C90.2344 46.8438 90.5938 45.2656 91.3438 41.9844C92.25 37.6719 93.1719 34.1562 94.1094 31.4375C95.0781 28.7188 96.6094 26.3906 98.7031 24.4531C100.797 22.5156 103.641 21.5469 107.234 21.5469C111.672 21.5469 114.875 22.8281 116.844 25.3906C118.812 27.9219 119.797 31.2969 119.797 35.5156C119.797 38.8594 119.234 42.5781 118.109 46.6719C118.109 46.8281 118.219 46.9844 118.438 47.1406C118.656 47.2656 118.891 47.3281 119.141 47.3281C119.422 47.3281 119.609 47.2188 119.703 47L120.359 44.375C121.484 39.75 122.594 35.9062 123.688 32.8438C124.812 29.7812 126.484 27.1406 128.703 24.9219C130.953 22.6719 133.875 21.5469 137.469 21.5469C142.188 21.5469 145.578 23.0625 147.641 26.0938C149.734 29.125 150.781 32.9375 150.781 37.5312C150.781 40.7812 150.469 44.0469 149.844 47.3281C149.25 50.6094 148.609 53.3594 147.922 55.5781C147.266 57.7969 146.453 60.3594 145.484 63.2656L145.578 63.3594L152.516 60.4531C154.953 62.5469 156.375 65.3281 156.781 68.7969C156.781 69.0156 156.078 69.9219 154.672 71.5156C153.266 73.0781 151.406 74.5469 149.094 75.9219C146.812 77.2656 144.188 77.9375 141.219 77.9375C138.25 77.9375 135.828 77.1406 133.953 75.5469C132.078 73.9531 131.141 71.2344 131.141 67.3906C131.141 63.1094 131.219 58.7188 131.375 54.2188C131.562 49.6875 131.828 45.625 132.172 42.0312C131.641 41.5938 130.906 41.3594 129.969 41.3281C129.031 42.2344 127.859 44.2188 126.453 47.2812C125.047 50.3125 123.75 53.5625 122.562 57.0312C121.375 60.4688 120.625 63.1562 120.312 65.0938C120.75 68.1562 121.422 71.1875 122.328 74.1875C121.766 75.25 120.609 76.1406 118.859 76.8594C117.109 77.5781 114.953 77.9375 112.391 77.9375C110.078 77.9375 108.266 77.75 106.953 77.375C105.641 77 104.734 76.6094 104.234 76.2031C103.766 75.7969 103.531 75.5312 103.531 75.4062C103.5 75.125 103.422 74.3906 103.297 73.2031C103.172 71.9844 103.047 70.2969 102.922 68.1406C102.797 65.9531 102.734 63.4688 102.734 60.6875C102.734 58.0312 102.938 54.7031 103.344 50.7031C103.375 50.2031 103.469 49.0156 103.625 47.1406C103.781 45.2656 103.859 43.5625 103.859 42.0312C103.328 41.5938 102.594 41.3594 101.656 41.3281C101.125 41.7344 99.6406 44.3281 97.2031 49.1094C94.7656 53.8906 93.1406 57.2656 92.3281 59.2344C92.2656 59.6719 92.2344 60.0938 92.2344 60.5C92.2344 62.0625 92.4688 64.1719 92.9375 66.8281C93.4062 69.4531 93.9844 71.9062 94.6719 74.1875C94.1094 75.25 92.9531 76.1406 91.2031 76.8594C89.4531 77.5781 87.2969 77.9375 84.7344 77.9375C82.4219 77.9375 80.5625 77.75 79.1562 77.375C77.7812 77 76.8125 76.6094 76.25 76.2031C75.6875 75.7656 75.4062 75.5 75.4062 75.4062C75.375 75.125 75.2969 74.3906 75.1719 73.2031C75.0469 71.9844 74.9219 70.2969 74.7969 68.1406C74.6719 65.9531 74.6094 63.4688 74.6094 60.6875ZM174.875 46.1094C176.719 46.1094 178.75 46.2969 180.969 46.6719C183.219 47.0469 185.281 47.5 187.156 48.0312V46.5781C187.156 45.6094 187.125 44.5312 187.062 43.3438C187.031 42.1562 186.969 41.375 186.875 41C186.594 40.4688 185.781 39.9219 184.438 39.3594C183.125 38.7969 180.969 38.5156 177.969 38.5156C176.125 38.5156 174.219 38.75 172.25 39.2188C170.312 39.6562 168.156 40.25 165.781 41C164.5 38.875 163.469 36.8594 162.688 34.9531C161.938 33.0156 161.562 31.0781 161.562 29.1406C161.562 28.5469 161.609 27.9531 161.703 27.3594C166.766 23.4219 173.312 21.4531 181.344 21.4531C185.781 21.4531 189.719 21.9531 193.156 22.9531C196.594 23.9531 199.422 25.8906 201.641 28.7656C203.859 31.6406 204.969 35.7188 204.969 41C204.969 46.1562 204.359 51.1562 203.141 56C201.953 60.8125 201.344 63.2656 201.312 63.3594L208.109 60.4531C209.016 61.4219 209.812 62.6094 210.5 64.0156C211.219 65.3906 211.672 66.9844 211.859 68.7969C211.422 69.7344 210.469 70.9375 209 72.4062C207.531 73.8438 205.734 75.125 203.609 76.25C201.484 77.375 199.266 77.9375 196.953 77.9375C194.359 77.9375 192.391 77.1719 191.047 75.6406C189.734 74.1094 189.078 72.125 189.078 69.6875C189.078 68.3125 189.281 66.9219 189.688 65.5156L188.281 65.0938C187.406 70.0312 185.547 73.4062 182.703 75.2188C179.859 77.0312 176.719 77.9375 173.281 77.9375C171.031 77.9375 168.859 77.3125 166.766 76.0625C164.672 74.7812 162.969 72.9375 161.656 70.5312C160.344 68.0938 159.688 65.25 159.688 62C159.688 56.8125 160.984 52.875 163.578 50.1875C166.172 47.4688 169.938 46.1094 174.875 46.1094ZM180.219 63.9688C181 63.8125 181.922 63.375 182.984 62.6562C184.078 61.9375 185.047 61.0781 185.891 60.0781C186.734 59.0781 187.234 58.125 187.391 57.2188L187.109 56.0938C185.453 55.875 183.688 55.7656 181.812 55.7656C180.219 55.7656 179.125 55.8906 178.531 56.1406C177.531 57.2656 177.031 58.5156 177.031 59.8906C177.031 60.8906 177.281 61.7969 177.781 62.6094C178.312 63.4219 179.125 63.875 180.219 63.9688ZM218.656 60.6875C218.656 55.5938 218.719 51.75 218.844 49.1562C218.969 46.5312 219.297 42.6875 219.828 37.625L214.391 36.9219C213.734 34.8906 213.297 33.0781 213.078 31.4844C212.891 29.8906 212.797 27.8281 212.797 25.2969C213.297 24.8594 214.125 24.3438 215.281 23.75C216.469 23.125 217.875 22.5938 219.5 22.1562C221.125 21.6875 222.766 21.4531 224.422 21.4531C228.203 21.4531 230.875 22.2656 232.438 23.8906C234.031 25.5156 234.828 27.9531 234.828 31.2031C234.828 33.0156 234.562 35.4688 234.031 38.5625C233.156 43.5312 232.719 46.1406 232.719 46.3906C232.719 46.5469 232.828 46.7031 233.047 46.8594C233.266 46.9844 233.5 47.0469 233.75 47.0469C234.031 47.0469 234.219 46.9375 234.312 46.7188C235.562 41.75 236.812 37.5938 238.062 34.25C239.312 30.9062 241.203 27.9375 243.734 25.3438C246.266 22.75 249.547 21.4531 253.578 21.4531C258.578 21.4531 262.172 22.9844 264.359 26.0469C266.547 29.0781 267.641 32.9062 267.641 37.5312C267.641 41.6562 267.156 45.6406 266.188 49.4844C265.219 53.2969 264.016 57.2812 262.578 61.4375C262.641 61.2812 262.422 61.8906 261.922 63.2656L262.016 63.3594L268.859 60.5469C271.297 62.6406 272.719 65.4219 273.125 68.8906C273.125 69.1094 272.422 70 271.016 71.5625C269.641 73.125 267.812 74.5781 265.531 75.9219C263.25 77.2656 260.625 77.9375 257.656 77.9375C254.688 77.9375 252.266 77.1406 250.391 75.5469C248.516 73.9531 247.578 71.2344 247.578 67.3906C247.578 64.3281 247.703 60.2344 247.953 55.1094C248.203 49.9844 248.453 45.8594 248.703 42.7344C247.891 41.8594 246.891 41.3906 245.703 41.3281C244.609 42.7344 243 45.5469 240.875 49.7656C238.75 53.9844 237.25 57.1406 236.375 59.2344C236.312 59.6719 236.281 60.0938 236.281 60.5C236.281 62.0625 236.516 64.1719 236.984 66.8281C237.453 69.4531 238.031 71.9062 238.719 74.1875C238.156 75.25 237 76.1406 235.25 76.8594C233.5 77.5781 231.344 77.9375 228.781 77.9375C226.469 77.9375 224.609 77.75 223.203 77.375C221.828 77 220.859 76.6094 220.297 76.2031C219.734 75.7656 219.453 75.5 219.453 75.4062C219.422 75.125 219.344 74.3906 219.219 73.2031C219.094 71.9844 218.969 70.2969 218.844 68.1406C218.719 65.9531 218.656 63.4688 218.656 60.6875ZM276.922 49.9531C276.922 45.2031 277.578 40.6562 278.891 36.3125C280.234 31.9688 282.328 28.4062 285.172 25.625C288.047 22.8438 291.656 21.4531 296 21.4531C300.875 21.4531 305.531 23 309.969 26.0938L310.719 25.625C310.625 21.9688 310.172 18.6562 309.359 15.6875L299.844 15.0781C299.406 14.5156 299.062 13.6875 298.812 12.5938C298.562 11.4688 298.438 10.3125 298.438 9.125C298.438 7.53125 298.625 6.15625 299 5C300.875 3.65625 303.281 2.64063 306.219 1.95312C309.156 1.26562 312.094 0.921875 315.031 0.921875C318.281 0.921875 320.734 1.60938 322.391 2.98438C324.047 4.32813 325.156 6.375 325.719 9.125C326.312 11.8438 326.609 15.625 326.609 20.4688C326.609 26.8438 326.344 34.0781 325.812 42.1719C325.281 50.2656 324.594 56.875 323.75 62L323.562 62.7969L329 60.4531C329.906 61.4219 330.703 62.6094 331.391 64.0156C332.109 65.3906 332.562 66.9844 332.75 68.7969C332.312 69.7344 331.359 70.9375 329.891 72.4062C328.422 73.8438 326.625 75.125 324.5 76.25C322.375 77.375 320.156 77.9375 317.844 77.9375C315.25 77.9375 313.25 77.1719 311.844 75.6406C310.469 74.0781 309.781 72.0938 309.781 69.6875C309.781 69.0625 309.938 67.7812 310.25 65.8438C310.594 63.9062 310.875 62.5625 311.094 61.8125L309.688 61.3906C308.094 66.9844 305.984 71.1406 303.359 73.8594C300.734 76.5781 297.484 77.9375 293.609 77.9375C289.453 77.9375 286.125 76.5625 283.625 73.8125C281.156 71.0312 279.422 67.5469 278.422 63.3594C277.422 59.1719 276.922 54.7031 276.922 49.9531ZM309.078 49.1094C309.266 47.9844 309.359 46.6719 309.359 45.1719C309.359 44.2031 309.312 43.2812 309.219 42.4062C309.156 41.5312 309.078 40.9062 308.984 40.5312C307.734 39.625 306.312 38.9844 304.719 38.6094C303.156 38.2344 301.719 38.0469 300.406 38.0469C299.594 38.0469 298.719 38.125 297.781 38.2812C297.156 38.9062 296.656 40.2656 296.281 42.3594C295.906 44.4219 295.719 46.75 295.719 49.3438C295.719 52.125 295.906 54.8281 296.281 57.4531C296.688 60.0469 297.25 62.0781 297.969 63.5469C298.469 63.5469 299.438 62.7812 300.875 61.25C302.344 59.6875 303.859 57.7812 305.422 55.5312C306.984 53.25 308.203 51.1094 309.078 49.1094ZM351.031 46.1094C352.875 46.1094 354.906 46.2969 357.125 46.6719C359.375 47.0469 361.438 47.5 363.312 48.0312V46.5781C363.312 45.6094 363.281 44.5312 363.219 43.3438C363.188 42.1562 363.125 41.375 363.031 41C362.75 40.4688 361.938 39.9219 360.594 39.3594C359.281 38.7969 357.125 38.5156 354.125 38.5156C352.281 38.5156 350.375 38.75 348.406 39.2188C346.469 39.6562 344.312 40.25 341.938 41C340.656 38.875 339.625 36.8594 338.844 34.9531C338.094 33.0156 337.719 31.0781 337.719 29.1406C337.719 28.5469 337.766 27.9531 337.859 27.3594C342.922 23.4219 349.469 21.4531 357.5 21.4531C361.938 21.4531 365.875 21.9531 369.312 22.9531C372.75 23.9531 375.578 25.8906 377.797 28.7656C380.016 31.6406 381.125 35.7188 381.125 41C381.125 46.1562 380.516 51.1562 379.297 56C378.109 60.8125 377.5 63.2656 377.469 63.3594L384.266 60.4531C385.172 61.4219 385.969 62.6094 386.656 64.0156C387.375 65.3906 387.828 66.9844 388.016 68.7969C387.578 69.7344 386.625 70.9375 385.156 72.4062C383.688 73.8438 381.891 75.125 379.766 76.25C377.641 77.375 375.422 77.9375 373.109 77.9375C370.516 77.9375 368.547 77.1719 367.203 75.6406C365.891 74.1094 365.234 72.125 365.234 69.6875C365.234 68.3125 365.438 66.9219 365.844 65.5156L364.438 65.0938C363.562 70.0312 361.703 73.4062 358.859 75.2188C356.016 77.0312 352.875 77.9375 349.438 77.9375C347.188 77.9375 345.016 77.3125 342.922 76.0625C340.828 74.7812 339.125 72.9375 337.812 70.5312C336.5 68.0938 335.844 65.25 335.844 62C335.844 56.8125 337.141 52.875 339.734 50.1875C342.328 47.4688 346.094 46.1094 351.031 46.1094ZM356.375 63.9688C357.156 63.8125 358.078 63.375 359.141 62.6562C360.234 61.9375 361.203 61.0781 362.047 60.0781C362.891 59.0781 363.391 58.125 363.547 57.2188L363.266 56.0938C361.609 55.875 359.844 55.7656 357.969 55.7656C356.375 55.7656 355.281 55.8906 354.688 56.1406C353.688 57.2656 353.188 58.5156 353.188 59.8906C353.188 60.8906 353.438 61.7969 353.938 62.6094C354.469 63.4219 355.281 63.875 356.375 63.9688ZM421.812 56.8438C419.562 47.5625 417.578 39.7969 415.859 33.5469C414.141 27.2656 412.766 23.3594 411.734 21.8281L407.047 21.5C406.141 19.125 405.5 16.2031 405.125 12.7344C405.656 11.0156 406.656 9.53125 408.125 8.28125C409.594 7 411.312 6.03125 413.281 5.375C415.25 4.71875 417.234 4.39062 419.234 4.39062C423.797 4.39062 427.203 6.48438 429.453 10.6719C430.484 12.5781 431.359 14.875 432.078 17.5625C432.797 20.2188 433.469 23.375 434.094 27.0312C435.125 33.1875 435.844 38.7188 436.25 43.625C436.656 48.5 436.984 53.6875 437.234 59.1875L437.422 63.4062H438.125C438.906 61.6875 439.766 57.9844 440.703 52.2969C441.641 46.6094 442.453 40.5938 443.141 34.25C443.828 27.875 444.203 23.1406 444.266 20.0469L438.359 19.1562C437.922 17.5 437.641 16.0156 437.516 14.7031C437.391 13.3906 437.328 11.7969 437.328 9.92188C437.984 9.10938 439.078 8.26563 440.609 7.39062C442.141 6.51562 443.922 5.78125 445.953 5.1875C447.984 4.59375 450 4.29688 452 4.29688C454.688 4.29688 457.109 4.75 459.266 5.65625C461.453 6.53125 463.188 7.84375 464.469 9.59375C465.781 11.3437 466.453 13.4844 466.484 16.0156V23.2344C467.891 28.7031 469.109 35.125 470.141 42.5C471.203 49.8438 471.984 56.7969 472.484 63.3594H473C473.75 61.6094 474.594 57.8906 475.531 52.2031C476.5 46.4844 477.344 40.4688 478.062 34.1562C478.781 27.8125 479.156 23.1094 479.188 20.0469L473.656 19.1562C473.219 17.5 472.938 16.0156 472.812 14.7031C472.688 13.3906 472.625 11.7969 472.625 9.92188C473.25 9.10938 474.344 8.26563 475.906 7.39062C477.469 6.51562 479.266 5.78125 481.297 5.1875C483.359 4.59375 485.391 4.29688 487.391 4.29688C491.484 4.29688 494.547 5.35938 496.578 7.48438C498.609 9.60937 499.625 12.8437 499.625 17.1875C499.625 21.3125 498.938 26.625 497.562 33.125C496.188 39.625 494.469 45.7344 492.406 51.4531C490.625 56.4531 488.875 60.7812 487.156 64.4375C485.438 68.0625 483.312 71.625 480.781 75.125C479.75 76.1875 478.391 76.9219 476.703 77.3281C475.047 77.7344 473.328 77.9375 471.547 77.9375C465.391 77.9375 460.844 76.75 457.906 74.375L459.172 64.7656L456.125 48.9688C455.406 44.8125 454.938 41.5 454.719 39.0312L454.109 38.9844L453.969 44.9375C452.938 51.0625 451.672 56.75 450.172 62C448.703 67.2188 447.016 71.5938 445.109 75.125C444.203 76.1562 442.953 76.875 441.359 77.2812C439.766 77.7188 438.141 77.9375 436.484 77.9375C430.078 77.9375 425.562 76.7656 422.938 74.4219L423.969 65.6094L421.812 56.8438ZM518.844 46.1094C520.688 46.1094 522.719 46.2969 524.938 46.6719C527.188 47.0469 529.25 47.5 531.125 48.0312V46.5781C531.125 45.6094 531.094 44.5312 531.031 43.3438C531 42.1562 530.938 41.375 530.844 41C530.562 40.4688 529.75 39.9219 528.406 39.3594C527.094 38.7969 524.938 38.5156 521.938 38.5156C520.094 38.5156 518.188 38.75 516.219 39.2188C514.281 39.6562 512.125 40.25 509.75 41C508.469 38.875 507.438 36.8594 506.656 34.9531C505.906 33.0156 505.531 31.0781 505.531 29.1406C505.531 28.5469 505.578 27.9531 505.672 27.3594C510.734 23.4219 517.281 21.4531 525.312 21.4531C529.75 21.4531 533.688 21.9531 537.125 22.9531C540.562 23.9531 543.391 25.8906 545.609 28.7656C547.828 31.6406 548.938 35.7188 548.938 41C548.938 46.1562 548.328 51.1562 547.109 56C545.922 60.8125 545.312 63.2656 545.281 63.3594L552.078 60.4531C552.984 61.4219 553.781 62.6094 554.469 64.0156C555.188 65.3906 555.641 66.9844 555.828 68.7969C555.391 69.7344 554.438 70.9375 552.969 72.4062C551.5 73.8438 549.703 75.125 547.578 76.25C545.453 77.375 543.234 77.9375 540.922 77.9375C538.328 77.9375 536.359 77.1719 535.016 75.6406C533.703 74.1094 533.047 72.125 533.047 69.6875C533.047 68.3125 533.25 66.9219 533.656 65.5156L532.25 65.0938C531.375 70.0312 529.516 73.4062 526.672 75.2188C523.828 77.0312 520.688 77.9375 517.25 77.9375C515 77.9375 512.828 77.3125 510.734 76.0625C508.641 74.7812 506.938 72.9375 505.625 70.5312C504.312 68.0938 503.656 65.25 503.656 62C503.656 56.8125 504.953 52.875 507.547 50.1875C510.141 47.4688 513.906 46.1094 518.844 46.1094ZM524.188 63.9688C524.969 63.8125 525.891 63.375 526.953 62.6562C528.047 61.9375 529.016 61.0781 529.859 60.0781C530.703 59.0781 531.203 58.125 531.359 57.2188L531.078 56.0938C529.422 55.875 527.656 55.7656 525.781 55.7656C524.188 55.7656 523.094 55.8906 522.5 56.1406C521.5 57.2656 521 58.5156 521 59.8906C521 60.8906 521.25 61.7969 521.75 62.6094C522.281 63.4219 523.094 63.875 524.188 63.9688ZM562.625 60.6875C562.625 55.5938 562.688 51.75 562.812 49.1562C562.938 46.5312 563.266 42.6875 563.797 37.625L558.359 36.9219C557.703 34.8906 557.266 33.0781 557.047 31.4844C556.859 29.8906 556.766 27.8281 556.766 25.2969C557.266 24.8594 558.094 24.3438 559.25 23.75C560.438 23.125 561.844 22.5938 563.469 22.1562C565.094 21.6875 566.734 21.4531 568.391 21.4531C572.172 21.4531 574.844 22.2656 576.406 23.8906C578 25.5156 578.797 27.9531 578.797 31.2031C578.797 33.0156 578.531 35.4688 578 38.5625C577.125 43.5312 576.688 46.1406 576.688 46.3906C576.688 46.5469 576.797 46.7031 577.016 46.8594C577.234 46.9844 577.469 47.0469 577.719 47.0469C578 47.0469 578.188 46.9375 578.281 46.7188C579.531 41.75 580.781 37.5938 582.031 34.25C583.281 30.9062 585.172 27.9375 587.703 25.3438C590.234 22.75 593.516 21.4531 597.547 21.4531C602.547 21.4531 606.141 22.9844 608.328 26.0469C610.516 29.0781 611.609 32.9062 611.609 37.5312C611.609 41.6562 611.125 45.6406 610.156 49.4844C609.188 53.2969 607.984 57.2812 606.547 61.4375C606.609 61.2812 606.391 61.8906 605.891 63.2656L605.984 63.3594L612.828 60.5469C615.266 62.6406 616.688 65.4219 617.094 68.8906C617.094 69.1094 616.391 70 614.984 71.5625C613.609 73.125 611.781 74.5781 609.5 75.9219C607.219 77.2656 604.594 77.9375 601.625 77.9375C598.656 77.9375 596.234 77.1406 594.359 75.5469C592.484 73.9531 591.547 71.2344 591.547 67.3906C591.547 64.3281 591.672 60.2344 591.922 55.1094C592.172 49.9844 592.422 45.8594 592.672 42.7344C591.859 41.8594 590.859 41.3906 589.672 41.3281C588.578 42.7344 586.969 45.5469 584.844 49.7656C582.719 53.9844 581.219 57.1406 580.344 59.2344C580.281 59.6719 580.25 60.0938 580.25 60.5C580.25 62.0625 580.484 64.1719 580.953 66.8281C581.422 69.4531 582 71.9062 582.688 74.1875C582.125 75.25 580.969 76.1406 579.219 76.8594C577.469 77.5781 575.312 77.9375 572.75 77.9375C570.438 77.9375 568.578 77.75 567.172 77.375C565.797 77 564.828 76.6094 564.266 76.2031C563.703 75.7656 563.422 75.5 563.422 75.4062C563.391 75.125 563.312 74.3906 563.188 73.2031C563.062 71.9844 562.938 70.2969 562.812 68.1406C562.688 65.9531 562.625 63.4688 562.625 60.6875ZM648.125 84.4531C650.219 84.4531 652.031 84.2188 653.562 83.75C654.031 83.2812 654.359 82.7344 654.547 82.1094C654.734 81.5156 654.828 80.9531 654.828 80.4219C654.828 79.8594 654.781 79.4375 654.688 79.1562C654.594 78.9062 654.438 78.6719 654.219 78.4531C652.906 78.2344 651.359 78.0781 649.578 77.9844C647.828 77.9219 646.781 77.875 646.438 77.8438C642.094 77.6562 638.562 77.3438 635.844 76.9062C633.125 76.4375 630.797 75.4375 628.859 73.9062C626.922 72.3438 625.953 70 625.953 66.875C625.953 65.1875 626.5 63.6094 627.594 62.1406C628.688 60.6406 630.109 59.3281 631.859 58.2031C628.297 56.7344 625.438 54.5312 623.281 51.5938C621.156 48.625 620.094 44.7969 620.094 40.1094C620.094 35.4531 621.281 31.7188 623.656 28.9062C626.062 26.0625 629.016 24.0625 632.516 22.9062C636.016 21.75 639.578 21.1719 643.203 21.1719C645.484 21.1719 647.719 21.3906 649.906 21.8281C652.094 22.2656 654.125 22.8906 656 23.7031L653.984 11.7969C655.891 10.6406 658.266 10.0625 661.109 10.0625C663.172 10.0625 665.094 10.4062 666.875 11.0938C668.656 11.7813 670.016 12.7656 670.953 14.0469C671.016 14.3594 671.047 14.8594 671.047 15.5469C671.047 18.1094 670.578 20.9688 669.641 24.125C668.734 27.25 667.156 29.7656 664.906 31.6719C666.031 33.9219 666.594 36.3438 666.594 38.9375C666.594 42.75 665.859 46.2656 664.391 49.4844C662.953 52.7031 660.547 55.3281 657.172 57.3594C653.797 59.3594 649.406 60.3594 644 60.3594C642.438 60.3594 640.812 60.2656 639.125 60.0781C639.031 61.6406 639.406 63.2031 640.25 64.7656C644.469 63.9531 647.875 63.5312 650.469 63.5L653.656 63.4531C657.969 63.4531 661.234 63.7188 663.453 64.25C665.891 64.8438 667.703 66.1875 668.891 68.2812C670.109 70.375 670.719 72.9219 670.719 75.9219C670.719 80.6094 669.281 84.5469 666.406 87.7344C663.562 90.9531 659.859 93.3438 655.297 94.9062C650.766 96.4688 645.953 97.25 640.859 97.25C636.141 97.25 631.938 96.4531 628.25 94.8594C624.562 93.2656 622.234 90.3438 621.266 86.0938C622.297 82.5 624.266 79.7812 627.172 77.9375C631.078 80.2812 634.812 81.9531 638.375 82.9531C641.969 83.9531 645.219 84.4531 648.125 84.4531ZM645.266 48.7812C647.516 48.7812 648.828 48.6406 649.203 48.3594C650.047 46.6719 650.469 44.9375 650.469 43.1562C650.469 41.3125 650.047 39.5781 649.203 37.9531C648.797 37.6094 647.891 37.3438 646.484 37.1562C645.109 36.9688 643.609 36.875 641.984 36.875C639.953 36.875 638.594 37 637.906 37.25C636.938 38.9688 636.453 40.7031 636.453 42.4531C636.453 44.2344 636.906 45.9219 637.812 47.5156C638.5 47.9531 639.531 48.2812 640.906 48.5C642.312 48.6875 643.766 48.7812 645.266 48.7812Z" fill="black"/>
</svg>
