<svg width="253" height="37" viewBox="0 0 253 37" fill="none" xmlns="http://www.w3.org/2000/svg">
<path d="M2.30078 23.3574C3.01562 23.5918 3.66602 23.7793 4.25195 23.9199C5.38867 19.3496 6.68359 13.9531 8.13672 7.73047L3.90039 7.27344C3.63086 6.53516 3.49609 5.69727 3.49609 4.75977C3.49609 4.04492 3.57812 3.34766 3.74219 2.66797C5.44141 2.33984 7.39844 2.10547 9.61328 1.96484C11.8398 1.8125 13.75 1.73633 15.3438 1.73633C16.4922 1.73633 17.3535 1.74219 17.9277 1.75391L19.0352 2.38672C21.0039 7.78906 23.002 15.0957 25.0293 24.3066C25.0527 24.4004 25.0938 24.5879 25.1523 24.8691C25.2227 25.1504 25.2754 25.4199 25.3105 25.6777C25.3457 25.9238 25.3633 26.1582 25.3633 26.3809C25.3633 27.3652 25.0117 28.1621 24.3086 28.7715C23.3242 29.1582 22.1348 29.3516 20.7402 29.3516C20.084 29.3516 19.4219 29.2812 18.7539 29.1406C18.0859 29 17.6348 28.7832 17.4004 28.4902L17.6113 23.9551L17.1719 21.5996C16.4102 21.6465 15.5137 21.6699 14.4824 21.6699C13.3809 21.6699 12.3496 21.6348 11.3887 21.5645L11.1777 22.5137C10.7207 24.5527 10.3457 26 10.0527 26.8555C9.77148 27.7109 9.34961 28.3438 8.78711 28.7539C8.23633 29.1641 7.41016 29.3691 6.30859 29.3691C5.59375 29.3691 4.87305 29.2754 4.14648 29.0879C3.41992 28.9121 2.76367 28.6719 2.17773 28.3672C1.5918 28.0625 1.15234 27.7344 0.859375 27.3828C0.859375 26.5391 0.988281 25.7363 1.24609 24.9746C1.50391 24.2129 1.85547 23.6738 2.30078 23.3574ZM14.623 7.88867H13.8145L12.5488 16.5547H16.4863L14.623 7.88867ZM28.791 22.8828C28.791 20.9727 28.8145 19.5312 28.8613 18.5586C28.9082 17.5742 29.0312 16.1328 29.2305 14.2344L27.209 13.9707C26.9629 13.209 26.7988 12.5293 26.7168 11.9316C26.6465 11.334 26.6113 10.5605 26.6113 9.61133C26.7988 9.44727 27.1094 9.25391 27.543 9.03125C27.9883 8.79688 28.5098 8.59766 29.1074 8.43359C29.7168 8.25781 30.332 8.16992 30.9531 8.16992C32.3711 8.16992 33.373 8.47461 33.959 9.08398C34.5566 9.69336 34.8555 10.6074 34.8555 11.8262C34.8555 12.5059 34.7559 13.4258 34.5566 14.5859C34.2285 16.4492 34.0645 17.4277 34.0645 17.5215C34.0645 17.5801 34.1055 17.6387 34.1875 17.6973C34.2695 17.7441 34.3574 17.7676 34.4512 17.7676C34.5566 17.7676 34.627 17.7266 34.6621 17.6445C34.6504 17.6914 34.7852 17.0996 35.0664 15.8691C35.4062 14.252 35.752 12.9336 36.1035 11.9141C36.4668 10.8945 37.041 10.0215 37.8262 9.29492C38.6113 8.56836 39.6777 8.20508 41.0254 8.20508C42.6895 8.20508 43.8906 8.68555 44.6289 9.64648C45.3672 10.5957 45.7363 11.8613 45.7363 13.4434C45.7363 14.6973 45.5254 16.0918 45.1035 17.627C45.1035 17.6855 45.1445 17.7441 45.2266 17.8027C45.3086 17.8496 45.3965 17.873 45.4902 17.873C45.5957 17.873 45.666 17.832 45.7012 17.75L45.9473 16.7656C46.3691 15.0312 46.7852 13.5898 47.1953 12.4414C47.6172 11.293 48.2441 10.3027 49.0762 9.4707C49.9199 8.62695 51.0156 8.20508 52.3633 8.20508C54.1328 8.20508 55.4043 8.77344 56.1777 9.91016C56.9629 11.0469 57.3555 12.4766 57.3555 14.1992C57.3555 15.418 57.2383 16.6426 57.0039 17.873C56.7812 19.1035 56.541 20.1348 56.2832 20.9668C56.0371 21.7988 55.7324 22.7598 55.3691 23.8496L55.4043 23.8848L58.0059 22.7949C58.9199 23.5801 59.4531 24.623 59.6055 25.9238C59.6055 26.0059 59.3418 26.3457 58.8145 26.9434C58.2871 27.5293 57.5898 28.0801 56.7227 28.5957C55.8672 29.0996 54.8828 29.3516 53.7695 29.3516C52.6562 29.3516 51.748 29.0527 51.0449 28.4551C50.3418 27.8574 49.9902 26.8379 49.9902 25.3965C49.9902 23.791 50.0195 22.1445 50.0781 20.457C50.1484 18.7578 50.248 17.2344 50.377 15.8867C50.1777 15.7227 49.9023 15.6348 49.5508 15.623C49.1992 15.9629 48.7598 16.707 48.2324 17.8555C47.7051 18.9922 47.2188 20.2109 46.7734 21.5117C46.3281 22.8008 46.0469 23.8086 45.9297 24.5352C46.0938 25.6836 46.3457 26.8203 46.6855 27.9453C46.4746 28.3438 46.041 28.6777 45.3848 28.9473C44.7285 29.2168 43.9199 29.3516 42.959 29.3516C42.0918 29.3516 41.4121 29.2812 40.9199 29.1406C40.4277 29 40.0879 28.8535 39.9004 28.7012C39.7246 28.5488 39.6367 28.4492 39.6367 28.4023C39.625 28.2969 39.5957 28.0215 39.5488 27.5762C39.502 27.1191 39.4551 26.4863 39.4082 25.6777C39.3613 24.8574 39.3379 23.9258 39.3379 22.8828C39.3379 21.8867 39.4141 20.6387 39.5664 19.1387C39.5781 18.9512 39.6133 18.5059 39.6719 17.8027C39.7305 17.0996 39.7598 16.4609 39.7598 15.8867C39.5605 15.7227 39.2852 15.6348 38.9336 15.623C38.7344 15.7754 38.1777 16.748 37.2637 18.541C36.3496 20.334 35.7402 21.5996 35.4355 22.3379C35.4121 22.502 35.4004 22.6602 35.4004 22.8125C35.4004 23.3984 35.4883 24.1895 35.6641 25.1855C35.8398 26.1699 36.0566 27.0898 36.3145 27.9453C36.1035 28.3438 35.6699 28.6777 35.0137 28.9473C34.3574 29.2168 33.5488 29.3516 32.5879 29.3516C31.7207 29.3516 31.0234 29.2812 30.4961 29.1406C29.9805 29 29.6172 28.8535 29.4062 28.7012C29.1953 28.5371 29.0898 28.4375 29.0898 28.4023C29.0781 28.2969 29.0488 28.0215 29.002 27.5762C28.9551 27.1191 28.9082 26.4863 28.8613 25.6777C28.8145 24.8574 28.791 23.9258 28.791 22.8828ZM66.3906 17.416C67.082 17.416 67.8438 17.4863 68.6758 17.627C69.5195 17.7676 70.293 17.9375 70.9961 18.1367V17.5918C70.9961 17.2285 70.9844 16.8242 70.9609 16.3789C70.9492 15.9336 70.9258 15.6406 70.8906 15.5C70.7852 15.3008 70.4805 15.0957 69.9766 14.8848C69.4844 14.6738 68.6758 14.5684 67.5508 14.5684C66.8594 14.5684 66.1445 14.6562 65.4062 14.832C64.6797 14.9961 63.8711 15.2188 62.9805 15.5C62.5 14.7031 62.1133 13.9473 61.8203 13.2324C61.5391 12.5059 61.3984 11.7793 61.3984 11.0527C61.3984 10.8301 61.416 10.6074 61.4512 10.3848C63.3496 8.9082 65.8047 8.16992 68.8164 8.16992C70.4805 8.16992 71.957 8.35742 73.2461 8.73242C74.5352 9.10742 75.5957 9.83398 76.4277 10.9121C77.2598 11.9902 77.6758 13.5195 77.6758 15.5C77.6758 17.4336 77.4473 19.3086 76.9902 21.125C76.5449 22.9297 76.3164 23.8496 76.3047 23.8848L78.8535 22.7949C79.1934 23.1582 79.4922 23.6035 79.75 24.1309C80.0195 24.6465 80.1895 25.2441 80.2598 25.9238C80.0957 26.2754 79.7383 26.7266 79.1875 27.2773C78.6367 27.8164 77.9629 28.2969 77.166 28.7188C76.3691 29.1406 75.5371 29.3516 74.6699 29.3516C73.6973 29.3516 72.959 29.0645 72.4551 28.4902C71.9629 27.916 71.7168 27.1719 71.7168 26.2578C71.7168 25.7422 71.793 25.2207 71.9453 24.6934L71.418 24.5352C71.0898 26.3867 70.3926 27.6523 69.3262 28.332C68.2598 29.0117 67.082 29.3516 65.793 29.3516C64.9492 29.3516 64.1348 29.1172 63.3496 28.6484C62.5645 28.168 61.9258 27.4766 61.4336 26.5742C60.9414 25.6602 60.6953 24.5938 60.6953 23.375C60.6953 21.4297 61.1816 19.9531 62.1543 18.9453C63.127 17.9258 64.5391 17.416 66.3906 17.416ZM68.3945 24.1133C68.6875 24.0547 69.0332 23.8906 69.4316 23.6211C69.8418 23.3516 70.2051 23.0293 70.5215 22.6543C70.8379 22.2793 71.0254 21.9219 71.084 21.582L70.9785 21.1602C70.3574 21.0781 69.6953 21.0371 68.9922 21.0371C68.3945 21.0371 67.9844 21.084 67.7617 21.1777C67.3867 21.5996 67.1992 22.0684 67.1992 22.584C67.1992 22.959 67.293 23.2988 67.4805 23.6035C67.6797 23.9082 67.9844 24.0781 68.3945 24.1133ZM82.8086 22.8828C82.8086 20.9727 82.832 19.5312 82.8789 18.5586C82.9258 17.5742 83.0488 16.1328 83.248 14.2344L81.209 13.9707C80.9629 13.209 80.7988 12.5293 80.7168 11.9316C80.6465 11.334 80.6113 10.5605 80.6113 9.61133C80.7988 9.44727 81.1094 9.25391 81.543 9.03125C81.9883 8.79688 82.5156 8.59766 83.125 8.43359C83.7344 8.25781 84.3496 8.16992 84.9707 8.16992C86.3887 8.16992 87.3906 8.47461 87.9766 9.08398C88.5742 9.69336 88.873 10.6074 88.873 11.8262C88.873 12.5059 88.7734 13.4258 88.5742 14.5859C88.2461 16.4492 88.082 17.4277 88.082 17.5215C88.082 17.5801 88.123 17.6387 88.2051 17.6973C88.2871 17.7441 88.375 17.7676 88.4688 17.7676C88.5742 17.7676 88.6445 17.7266 88.6797 17.6445C89.1484 15.7812 89.6172 14.2227 90.0859 12.9688C90.5547 11.7148 91.2637 10.6016 92.2129 9.62891C93.1621 8.65625 94.3926 8.16992 95.9043 8.16992C97.7793 8.16992 99.127 8.74414 99.9473 9.89258C100.768 11.0293 101.178 12.4648 101.178 14.1992C101.178 15.7461 100.996 17.2402 100.633 18.6816C100.27 20.1113 99.8184 21.6055 99.2793 23.1641C99.3027 23.1055 99.2207 23.334 99.0332 23.8496L99.0684 23.8848L101.635 22.8301C102.549 23.6152 103.082 24.6582 103.234 25.959C103.234 26.041 102.971 26.375 102.443 26.9609C101.928 27.5469 101.242 28.0918 100.387 28.5957C99.5312 29.0996 98.5469 29.3516 97.4336 29.3516C96.3203 29.3516 95.4121 29.0527 94.709 28.4551C94.0059 27.8574 93.6543 26.8379 93.6543 25.3965C93.6543 24.248 93.7012 22.7129 93.7949 20.791C93.8887 18.8691 93.9824 17.3223 94.0762 16.1504C93.7715 15.8223 93.3965 15.6465 92.9512 15.623C92.541 16.1504 91.9375 17.2051 91.1406 18.7871C90.3438 20.3691 89.7812 21.5527 89.4531 22.3379C89.4297 22.502 89.418 22.6602 89.418 22.8125C89.418 23.3984 89.5059 24.1895 89.6816 25.1855C89.8574 26.1699 90.0742 27.0898 90.332 27.9453C90.1211 28.3438 89.6875 28.6777 89.0312 28.9473C88.375 29.2168 87.5664 29.3516 86.6055 29.3516C85.7383 29.3516 85.041 29.2812 84.5137 29.1406C83.998 29 83.6348 28.8535 83.4238 28.7012C83.2129 28.5371 83.1074 28.4375 83.1074 28.4023C83.0957 28.2969 83.0664 28.0215 83.0195 27.5762C82.9727 27.1191 82.9258 26.4863 82.8789 25.6777C82.832 24.8574 82.8086 23.9258 82.8086 22.8828ZM104.658 18.8574C104.658 17.0762 104.904 15.3711 105.396 13.7422C105.9 12.1133 106.686 10.7773 107.752 9.73438C108.83 8.69141 110.184 8.16992 111.812 8.16992C113.641 8.16992 115.387 8.75 117.051 9.91016L117.332 9.73438C117.297 8.36328 117.127 7.12109 116.822 6.00781L113.254 5.7793C113.09 5.56836 112.961 5.25781 112.867 4.84766C112.773 4.42578 112.727 3.99219 112.727 3.54688C112.727 2.94922 112.797 2.43359 112.938 2C113.641 1.49609 114.543 1.11523 115.645 0.857422C116.746 0.599609 117.848 0.470703 118.949 0.470703C120.168 0.470703 121.088 0.728516 121.709 1.24414C122.33 1.74805 122.746 2.51562 122.957 3.54688C123.18 4.56641 123.291 5.98438 123.291 7.80078C123.291 10.1914 123.191 12.9043 122.992 15.9395C122.793 18.9746 122.535 21.4531 122.219 23.375L122.148 23.6738L124.188 22.7949C124.527 23.1582 124.826 23.6035 125.084 24.1309C125.354 24.6465 125.523 25.2441 125.594 25.9238C125.43 26.2754 125.072 26.7266 124.521 27.2773C123.971 27.8164 123.297 28.2969 122.5 28.7188C121.703 29.1406 120.871 29.3516 120.004 29.3516C119.031 29.3516 118.281 29.0645 117.754 28.4902C117.238 27.9043 116.98 27.1602 116.98 26.2578C116.98 26.0234 117.039 25.543 117.156 24.8164C117.285 24.0898 117.391 23.5859 117.473 23.3047L116.945 23.1465C116.348 25.2441 115.557 26.8027 114.572 27.8223C113.588 28.8418 112.369 29.3516 110.916 29.3516C109.357 29.3516 108.109 28.8359 107.172 27.8047C106.246 26.7617 105.596 25.4551 105.221 23.8848C104.846 22.3145 104.658 20.6387 104.658 18.8574ZM116.717 18.541C116.787 18.1191 116.822 17.627 116.822 17.0645C116.822 16.7012 116.805 16.3555 116.77 16.0273C116.746 15.6992 116.717 15.4648 116.682 15.3242C116.213 14.9844 115.68 14.7441 115.082 14.6035C114.496 14.4629 113.957 14.3926 113.465 14.3926C113.16 14.3926 112.832 14.4219 112.48 14.4805C112.246 14.7148 112.059 15.2246 111.918 16.0098C111.777 16.7832 111.707 17.6562 111.707 18.6289C111.707 19.6719 111.777 20.6855 111.918 21.6699C112.07 22.6426 112.281 23.4043 112.551 23.9551C112.738 23.9551 113.102 23.668 113.641 23.0938C114.191 22.5078 114.76 21.793 115.346 20.9492C115.932 20.0938 116.389 19.291 116.717 18.541ZM132.449 17.416C133.141 17.416 133.902 17.4863 134.734 17.627C135.578 17.7676 136.352 17.9375 137.055 18.1367V17.5918C137.055 17.2285 137.043 16.8242 137.02 16.3789C137.008 15.9336 136.984 15.6406 136.949 15.5C136.844 15.3008 136.539 15.0957 136.035 14.8848C135.543 14.6738 134.734 14.5684 133.609 14.5684C132.918 14.5684 132.203 14.6562 131.465 14.832C130.738 14.9961 129.93 15.2188 129.039 15.5C128.559 14.7031 128.172 13.9473 127.879 13.2324C127.598 12.5059 127.457 11.7793 127.457 11.0527C127.457 10.8301 127.475 10.6074 127.51 10.3848C129.408 8.9082 131.863 8.16992 134.875 8.16992C136.539 8.16992 138.016 8.35742 139.305 8.73242C140.594 9.10742 141.654 9.83398 142.486 10.9121C143.318 11.9902 143.734 13.5195 143.734 15.5C143.734 17.4336 143.506 19.3086 143.049 21.125C142.604 22.9297 142.375 23.8496 142.363 23.8848L144.912 22.7949C145.252 23.1582 145.551 23.6035 145.809 24.1309C146.078 24.6465 146.248 25.2441 146.318 25.9238C146.154 26.2754 145.797 26.7266 145.246 27.2773C144.695 27.8164 144.021 28.2969 143.225 28.7188C142.428 29.1406 141.596 29.3516 140.729 29.3516C139.756 29.3516 139.018 29.0645 138.514 28.4902C138.021 27.916 137.775 27.1719 137.775 26.2578C137.775 25.7422 137.852 25.2207 138.004 24.6934L137.477 24.5352C137.148 26.3867 136.451 27.6523 135.385 28.332C134.318 29.0117 133.141 29.3516 131.852 29.3516C131.008 29.3516 130.193 29.1172 129.408 28.6484C128.623 28.168 127.984 27.4766 127.492 26.5742C127 25.6602 126.754 24.5938 126.754 23.375C126.754 21.4297 127.24 19.9531 128.213 18.9453C129.186 17.9258 130.598 17.416 132.449 17.416ZM134.453 24.1133C134.746 24.0547 135.092 23.8906 135.49 23.6211C135.9 23.3516 136.264 23.0293 136.58 22.6543C136.896 22.2793 137.084 21.9219 137.143 21.582L137.037 21.1602C136.416 21.0781 135.754 21.0371 135.051 21.0371C134.453 21.0371 134.043 21.084 133.82 21.1777C133.445 21.5996 133.258 22.0684 133.258 22.584C133.258 22.959 133.352 23.2988 133.539 23.6035C133.738 23.9082 134.043 24.0781 134.453 24.1133ZM158.992 21.4414C158.148 17.9609 157.404 15.0488 156.76 12.7051C156.115 10.3496 155.6 8.88477 155.213 8.31055L153.455 8.1875C153.115 7.29687 152.875 6.20117 152.734 4.90039C152.934 4.25586 153.309 3.69922 153.859 3.23047C154.41 2.75 155.055 2.38672 155.793 2.14062C156.531 1.89453 157.275 1.77148 158.025 1.77148C159.736 1.77148 161.014 2.55664 161.857 4.12695C162.244 4.8418 162.572 5.70313 162.842 6.71094C163.111 7.70703 163.363 8.89062 163.598 10.2617C163.984 12.5703 164.254 14.6445 164.406 16.4844C164.559 18.3125 164.682 20.2578 164.775 22.3203L164.846 23.9023H165.109C165.402 23.2578 165.725 21.8691 166.076 19.7363C166.428 17.6035 166.732 15.3477 166.99 12.9688C167.248 10.5781 167.389 8.80273 167.412 7.64258L165.197 7.30859C165.033 6.6875 164.928 6.13086 164.881 5.63867C164.834 5.14648 164.811 4.54883 164.811 3.8457C165.057 3.54102 165.467 3.22461 166.041 2.89648C166.615 2.56836 167.283 2.29297 168.045 2.07031C168.807 1.84766 169.562 1.73633 170.312 1.73633C171.32 1.73633 172.229 1.90625 173.037 2.24609C173.857 2.57422 174.508 3.06641 174.988 3.72266C175.48 4.37891 175.732 5.18164 175.744 6.13086V8.83789C176.271 10.8887 176.729 13.2969 177.115 16.0625C177.514 18.8164 177.807 21.4238 177.994 23.8848H178.188C178.469 23.2285 178.785 21.834 179.137 19.7012C179.5 17.5566 179.816 15.3008 180.086 12.9336C180.355 10.5547 180.496 8.79102 180.508 7.64258L178.434 7.30859C178.27 6.6875 178.164 6.13086 178.117 5.63867C178.07 5.14648 178.047 4.54883 178.047 3.8457C178.281 3.54102 178.691 3.22461 179.277 2.89648C179.863 2.56836 180.537 2.29297 181.299 2.07031C182.072 1.84766 182.834 1.73633 183.584 1.73633C185.119 1.73633 186.268 2.13477 187.029 2.93164C187.791 3.72852 188.172 4.94141 188.172 6.57031C188.172 8.11719 187.914 10.1094 187.398 12.5469C186.883 14.9844 186.238 17.2754 185.465 19.4199C184.797 21.2949 184.141 22.918 183.496 24.2891C182.852 25.6484 182.055 26.9844 181.105 28.2969C180.719 28.6953 180.209 28.9707 179.576 29.123C178.955 29.2754 178.311 29.3516 177.643 29.3516C175.334 29.3516 173.629 28.9062 172.527 28.0156L173.002 24.4121L171.859 18.4883C171.59 16.9297 171.414 15.6875 171.332 14.7617L171.104 14.7441L171.051 16.9766C170.664 19.2734 170.189 21.4062 169.627 23.375C169.076 25.332 168.443 26.9727 167.729 28.2969C167.389 28.6836 166.92 28.9531 166.322 29.1055C165.725 29.2695 165.115 29.3516 164.494 29.3516C162.092 29.3516 160.398 28.9121 159.414 28.0332L159.801 24.7285L158.992 21.4414ZM195.379 17.416C196.07 17.416 196.832 17.4863 197.664 17.627C198.508 17.7676 199.281 17.9375 199.984 18.1367V17.5918C199.984 17.2285 199.973 16.8242 199.949 16.3789C199.938 15.9336 199.914 15.6406 199.879 15.5C199.773 15.3008 199.469 15.0957 198.965 14.8848C198.473 14.6738 197.664 14.5684 196.539 14.5684C195.848 14.5684 195.133 14.6562 194.395 14.832C193.668 14.9961 192.859 15.2188 191.969 15.5C191.488 14.7031 191.102 13.9473 190.809 13.2324C190.527 12.5059 190.387 11.7793 190.387 11.0527C190.387 10.8301 190.404 10.6074 190.439 10.3848C192.338 8.9082 194.793 8.16992 197.805 8.16992C199.469 8.16992 200.945 8.35742 202.234 8.73242C203.523 9.10742 204.584 9.83398 205.416 10.9121C206.248 11.9902 206.664 13.5195 206.664 15.5C206.664 17.4336 206.436 19.3086 205.979 21.125C205.533 22.9297 205.305 23.8496 205.293 23.8848L207.842 22.7949C208.182 23.1582 208.48 23.6035 208.738 24.1309C209.008 24.6465 209.178 25.2441 209.248 25.9238C209.084 26.2754 208.727 26.7266 208.176 27.2773C207.625 27.8164 206.951 28.2969 206.154 28.7188C205.357 29.1406 204.525 29.3516 203.658 29.3516C202.686 29.3516 201.947 29.0645 201.443 28.4902C200.951 27.916 200.705 27.1719 200.705 26.2578C200.705 25.7422 200.781 25.2207 200.934 24.6934L200.406 24.5352C200.078 26.3867 199.381 27.6523 198.314 28.332C197.248 29.0117 196.07 29.3516 194.781 29.3516C193.938 29.3516 193.123 29.1172 192.338 28.6484C191.553 28.168 190.914 27.4766 190.422 26.5742C189.93 25.6602 189.684 24.5938 189.684 23.375C189.684 21.4297 190.17 19.9531 191.143 18.9453C192.115 17.9258 193.527 17.416 195.379 17.416ZM197.383 24.1133C197.676 24.0547 198.021 23.8906 198.42 23.6211C198.83 23.3516 199.193 23.0293 199.51 22.6543C199.826 22.2793 200.014 21.9219 200.072 21.582L199.967 21.1602C199.346 21.0781 198.684 21.0371 197.98 21.0371C197.383 21.0371 196.973 21.084 196.75 21.1777C196.375 21.5996 196.188 22.0684 196.188 22.584C196.188 22.959 196.281 23.2988 196.469 23.6035C196.668 23.9082 196.973 24.0781 197.383 24.1133ZM211.797 22.8828C211.797 20.9727 211.82 19.5312 211.867 18.5586C211.914 17.5742 212.037 16.1328 212.236 14.2344L210.197 13.9707C209.951 13.209 209.787 12.5293 209.705 11.9316C209.635 11.334 209.6 10.5605 209.6 9.61133C209.787 9.44727 210.098 9.25391 210.531 9.03125C210.977 8.79688 211.504 8.59766 212.113 8.43359C212.723 8.25781 213.338 8.16992 213.959 8.16992C215.377 8.16992 216.379 8.47461 216.965 9.08398C217.562 9.69336 217.861 10.6074 217.861 11.8262C217.861 12.5059 217.762 13.4258 217.562 14.5859C217.234 16.4492 217.07 17.4277 217.07 17.5215C217.07 17.5801 217.111 17.6387 217.193 17.6973C217.275 17.7441 217.363 17.7676 217.457 17.7676C217.562 17.7676 217.633 17.7266 217.668 17.6445C218.137 15.7812 218.605 14.2227 219.074 12.9688C219.543 11.7148 220.252 10.6016 221.201 9.62891C222.15 8.65625 223.381 8.16992 224.893 8.16992C226.768 8.16992 228.115 8.74414 228.936 9.89258C229.756 11.0293 230.166 12.4648 230.166 14.1992C230.166 15.7461 229.984 17.2402 229.621 18.6816C229.258 20.1113 228.807 21.6055 228.268 23.1641C228.291 23.1055 228.209 23.334 228.021 23.8496L228.057 23.8848L230.623 22.8301C231.537 23.6152 232.07 24.6582 232.223 25.959C232.223 26.041 231.959 26.375 231.432 26.9609C230.916 27.5469 230.23 28.0918 229.375 28.5957C228.52 29.0996 227.535 29.3516 226.422 29.3516C225.309 29.3516 224.4 29.0527 223.697 28.4551C222.994 27.8574 222.643 26.8379 222.643 25.3965C222.643 24.248 222.689 22.7129 222.783 20.791C222.877 18.8691 222.971 17.3223 223.064 16.1504C222.76 15.8223 222.385 15.6465 221.939 15.623C221.529 16.1504 220.926 17.2051 220.129 18.7871C219.332 20.3691 218.77 21.5527 218.441 22.3379C218.418 22.502 218.406 22.6602 218.406 22.8125C218.406 23.3984 218.494 24.1895 218.67 25.1855C218.846 26.1699 219.062 27.0898 219.32 27.9453C219.109 28.3438 218.676 28.6777 218.02 28.9473C217.363 29.2168 216.555 29.3516 215.594 29.3516C214.727 29.3516 214.029 29.2812 213.502 29.1406C212.986 29 212.623 28.8535 212.412 28.7012C212.201 28.5371 212.096 28.4375 212.096 28.4023C212.084 28.2969 212.055 28.0215 212.008 27.5762C211.961 27.1191 211.914 26.4863 211.867 25.6777C211.82 24.8574 211.797 23.9258 211.797 22.8828ZM243.859 31.7949C244.645 31.7949 245.324 31.707 245.898 31.5312C246.074 31.3555 246.197 31.1504 246.268 30.916C246.338 30.6934 246.373 30.4824 246.373 30.2832C246.373 30.0723 246.355 29.9141 246.32 29.8086C246.285 29.7148 246.227 29.627 246.145 29.5449C245.652 29.4629 245.072 29.4043 244.404 29.3691C243.748 29.3457 243.355 29.3281 243.227 29.3164C241.598 29.2461 240.273 29.1289 239.254 28.9648C238.234 28.7891 237.361 28.4141 236.635 27.8398C235.908 27.2539 235.545 26.375 235.545 25.2031C235.545 24.5703 235.75 23.9785 236.16 23.4277C236.57 22.8652 237.104 22.373 237.76 21.9512C236.424 21.4004 235.352 20.5742 234.543 19.4727C233.746 18.3594 233.348 16.9238 233.348 15.166C233.348 13.4199 233.793 12.0195 234.684 10.9648C235.586 9.89844 236.693 9.14844 238.006 8.71484C239.318 8.28125 240.654 8.06445 242.014 8.06445C242.869 8.06445 243.707 8.14648 244.527 8.31055C245.348 8.47461 246.109 8.70898 246.812 9.01367L246.057 4.54883C246.771 4.11523 247.662 3.89844 248.729 3.89844C249.502 3.89844 250.223 4.02734 250.891 4.28516C251.559 4.54297 252.068 4.91211 252.42 5.39258C252.443 5.50977 252.455 5.69727 252.455 5.95508C252.455 6.91602 252.279 7.98828 251.928 9.17188C251.588 10.3438 250.996 11.2871 250.152 12.002C250.574 12.8457 250.785 13.7539 250.785 14.7266C250.785 16.1562 250.51 17.4746 249.959 18.6816C249.42 19.8887 248.518 20.873 247.252 21.6348C245.986 22.3848 244.34 22.7598 242.312 22.7598C241.727 22.7598 241.117 22.7246 240.484 22.6543C240.449 23.2402 240.59 23.8262 240.906 24.4121C242.488 24.1074 243.766 23.9492 244.738 23.9375L245.934 23.9199C247.551 23.9199 248.775 24.0195 249.607 24.2188C250.521 24.4414 251.201 24.9453 251.646 25.7305C252.104 26.5156 252.332 27.4707 252.332 28.5957C252.332 30.3535 251.793 31.8301 250.715 33.0254C249.648 34.2324 248.26 35.1289 246.549 35.7148C244.85 36.3008 243.045 36.5938 241.135 36.5938C239.365 36.5938 237.789 36.2949 236.406 35.6973C235.023 35.0996 234.15 34.0039 233.787 32.4102C234.174 31.0625 234.912 30.043 236.002 29.3516C237.467 30.2305 238.867 30.8574 240.203 31.2324C241.551 31.6074 242.77 31.7949 243.859 31.7949ZM242.787 18.418C243.631 18.418 244.123 18.3652 244.264 18.2598C244.58 17.627 244.738 16.9766 244.738 16.3086C244.738 15.6172 244.58 14.9668 244.264 14.3574C244.111 14.2285 243.771 14.1289 243.244 14.0586C242.729 13.9883 242.166 13.9531 241.557 13.9531C240.795 13.9531 240.285 14 240.027 14.0938C239.664 14.7383 239.482 15.3887 239.482 16.0449C239.482 16.7129 239.652 17.3457 239.992 17.9434C240.25 18.1074 240.637 18.2305 241.152 18.3125C241.68 18.3828 242.225 18.418 242.787 18.418Z" fill="black"/>
</svg>
