<svg width="449" height="65" viewBox="0 0 449 65" fill="none" xmlns="http://www.w3.org/2000/svg">
<path d="M3.3125 40.9688C4.58333 41.3854 5.73958 41.7188 6.78125 41.9688C8.80208 33.8438 11.1042 24.25 13.6875 13.1875L6.15625 12.375C5.67708 11.0625 5.4375 9.57292 5.4375 7.90625C5.4375 6.63542 5.58333 5.39583 5.875 4.1875C8.89583 3.60417 12.375 3.1875 16.3125 2.9375C20.2708 2.66667 23.6667 2.53125 26.5 2.53125C28.5417 2.53125 30.0729 2.54167 31.0938 2.5625L33.0625 3.6875C36.5625 13.2917 40.1146 26.2812 43.7188 42.6562C43.7604 42.8229 43.8333 43.1562 43.9375 43.6562C44.0625 44.1562 44.1562 44.6354 44.2188 45.0938C44.2812 45.5312 44.3125 45.9479 44.3125 46.3438C44.3125 48.0938 43.6875 49.5104 42.4375 50.5938C40.6875 51.2812 38.5729 51.625 36.0938 51.625C34.9271 51.625 33.75 51.5 32.5625 51.25C31.375 51 30.5729 50.6146 30.1562 50.0938L30.5312 42.0312L29.75 37.8438C28.3958 37.9271 26.8021 37.9688 24.9688 37.9688C23.0104 37.9688 21.1771 37.9062 19.4688 37.7812L19.0938 39.4688C18.2812 43.0938 17.6146 45.6667 17.0938 47.1875C16.5938 48.7083 15.8438 49.8333 14.8438 50.5625C13.8646 51.2917 12.3958 51.6562 10.4375 51.6562C9.16667 51.6562 7.88542 51.4896 6.59375 51.1562C5.30208 50.8438 4.13542 50.4167 3.09375 49.875C2.05208 49.3333 1.27083 48.75 0.75 48.125C0.75 46.625 0.979167 45.1979 1.4375 43.8438C1.89583 42.4896 2.52083 41.5312 3.3125 40.9688ZM25.2188 13.4688H23.7812L21.5312 28.875H28.5312L25.2188 13.4688ZM50.4062 40.125C50.4062 36.7292 50.4479 34.1667 50.5312 32.4375C50.6146 30.6875 50.8333 28.125 51.1875 24.75L47.5938 24.2812C47.1562 22.9271 46.8646 21.7188 46.7188 20.6562C46.5938 19.5938 46.5312 18.2188 46.5312 16.5312C46.8646 16.2396 47.4167 15.8958 48.1875 15.5C48.9792 15.0833 49.9062 14.7292 50.9688 14.4375C52.0521 14.125 53.1458 13.9688 54.25 13.9688C56.7708 13.9688 58.5521 14.5104 59.5938 15.5938C60.6562 16.6771 61.1875 18.3021 61.1875 20.4688C61.1875 21.6771 61.0104 23.3125 60.6562 25.375C60.0729 28.6875 59.7812 30.4271 59.7812 30.5938C59.7812 30.6979 59.8542 30.8021 60 30.9062C60.1458 30.9896 60.3021 31.0312 60.4688 31.0312C60.6562 31.0312 60.7812 30.9583 60.8438 30.8125C60.8229 30.8958 61.0625 29.8438 61.5625 27.6562C62.1667 24.7812 62.7812 22.4375 63.4062 20.625C64.0521 18.8125 65.0729 17.2604 66.4688 15.9688C67.8646 14.6771 69.7604 14.0312 72.1562 14.0312C75.1146 14.0312 77.25 14.8854 78.5625 16.5938C79.875 18.2812 80.5312 20.5312 80.5312 23.3438C80.5312 25.5729 80.1562 28.0521 79.4062 30.7812C79.4062 30.8854 79.4792 30.9896 79.625 31.0938C79.7708 31.1771 79.9271 31.2188 80.0938 31.2188C80.2812 31.2188 80.4062 31.1458 80.4688 31L80.9062 29.25C81.6562 26.1667 82.3958 23.6042 83.125 21.5625C83.875 19.5208 84.9896 17.7604 86.4688 16.2812C87.9688 14.7812 89.9167 14.0312 92.3125 14.0312C95.4583 14.0312 97.7188 15.0417 99.0938 17.0625C100.49 19.0833 101.188 21.625 101.188 24.6875C101.188 26.8542 100.979 29.0312 100.562 31.2188C100.167 33.4062 99.7396 35.2396 99.2812 36.7188C98.8438 38.1979 98.3021 39.9062 97.6562 41.8438L97.7188 41.9062L102.344 39.9688C103.969 41.3646 104.917 43.2188 105.188 45.5312C105.188 45.6771 104.719 46.2812 103.781 47.3438C102.844 48.3854 101.604 49.3646 100.062 50.2812C98.5417 51.1771 96.7917 51.625 94.8125 51.625C92.8333 51.625 91.2188 51.0938 89.9688 50.0312C88.7188 48.9688 88.0938 47.1562 88.0938 44.5938C88.0938 41.7396 88.1458 38.8125 88.25 35.8125C88.375 32.7917 88.5521 30.0833 88.7812 27.6875C88.4271 27.3958 87.9375 27.2396 87.3125 27.2188C86.6875 27.8229 85.9062 29.1458 84.9688 31.1875C84.0312 33.2083 83.1667 35.375 82.375 37.6875C81.5833 39.9792 81.0833 41.7708 80.875 43.0625C81.1667 45.1042 81.6146 47.125 82.2188 49.125C81.8438 49.8333 81.0729 50.4271 79.9062 50.9062C78.7396 51.3854 77.3021 51.625 75.5938 51.625C74.0521 51.625 72.8438 51.5 71.9688 51.25C71.0938 51 70.4896 50.7396 70.1562 50.4688C69.8438 50.1979 69.6875 50.0208 69.6875 49.9375C69.6667 49.75 69.6146 49.2604 69.5312 48.4688C69.4479 47.6562 69.3646 46.5312 69.2812 45.0938C69.1979 43.6354 69.1562 41.9792 69.1562 40.125C69.1562 38.3542 69.2917 36.1354 69.5625 33.4688C69.5833 33.1354 69.6458 32.3438 69.75 31.0938C69.8542 29.8438 69.9062 28.7083 69.9062 27.6875C69.5521 27.3958 69.0625 27.2396 68.4375 27.2188C68.0833 27.4896 67.0938 29.2188 65.4688 32.4062C63.8438 35.5938 62.7604 37.8438 62.2188 39.1562C62.1771 39.4479 62.1562 39.7292 62.1562 40C62.1562 41.0417 62.3125 42.4479 62.625 44.2188C62.9375 45.9688 63.3229 47.6042 63.7812 49.125C63.4062 49.8333 62.6354 50.4271 61.4688 50.9062C60.3021 51.3854 58.8646 51.625 57.1562 51.625C55.6146 51.625 54.375 51.5 53.4375 51.25C52.5208 51 51.875 50.7396 51.5 50.4688C51.125 50.1771 50.9375 50 50.9375 49.9375C50.9167 49.75 50.8646 49.2604 50.7812 48.4688C50.6979 47.6562 50.6146 46.5312 50.5312 45.0938C50.4479 43.6354 50.4062 41.9792 50.4062 40.125ZM117.25 30.4062C118.479 30.4062 119.833 30.5312 121.312 30.7812C122.812 31.0312 124.188 31.3333 125.438 31.6875V30.7188C125.438 30.0729 125.417 29.3542 125.375 28.5625C125.354 27.7708 125.312 27.25 125.25 27C125.062 26.6458 124.521 26.2812 123.625 25.9062C122.75 25.5312 121.312 25.3438 119.312 25.3438C118.083 25.3438 116.812 25.5 115.5 25.8125C114.208 26.1042 112.771 26.5 111.188 27C110.333 25.5833 109.646 24.2396 109.125 22.9688C108.625 21.6771 108.375 20.3854 108.375 19.0938C108.375 18.6979 108.406 18.3021 108.469 17.9062C111.844 15.2812 116.208 13.9688 121.562 13.9688C124.521 13.9688 127.146 14.3021 129.438 14.9688C131.729 15.6354 133.615 16.9271 135.094 18.8438C136.573 20.7604 137.312 23.4792 137.312 27C137.312 30.4375 136.906 33.7708 136.094 37C135.302 40.2083 134.896 41.8438 134.875 41.9062L139.406 39.9688C140.01 40.6146 140.542 41.4062 141 42.3438C141.479 43.2604 141.781 44.3229 141.906 45.5312C141.615 46.1562 140.979 46.9583 140 47.9375C139.021 48.8958 137.823 49.75 136.406 50.5C134.99 51.25 133.51 51.625 131.969 51.625C130.24 51.625 128.927 51.1146 128.031 50.0938C127.156 49.0729 126.719 47.75 126.719 46.125C126.719 45.2083 126.854 44.2812 127.125 43.3438L126.188 43.0625C125.604 46.3542 124.365 48.6042 122.469 49.8125C120.573 51.0208 118.479 51.625 116.188 51.625C114.688 51.625 113.24 51.2083 111.844 50.375C110.448 49.5208 109.312 48.2917 108.438 46.6875C107.562 45.0625 107.125 43.1667 107.125 41C107.125 37.5417 107.99 34.9167 109.719 33.125C111.448 31.3125 113.958 30.4062 117.25 30.4062ZM120.812 42.3125C121.333 42.2083 121.948 41.9167 122.656 41.4375C123.385 40.9583 124.031 40.3854 124.594 39.7188C125.156 39.0521 125.49 38.4167 125.594 37.8125L125.406 37.0625C124.302 36.9167 123.125 36.8438 121.875 36.8438C120.812 36.8438 120.083 36.9271 119.688 37.0938C119.021 37.8438 118.688 38.6771 118.688 39.5938C118.688 40.2604 118.854 40.8646 119.188 41.4062C119.542 41.9479 120.083 42.25 120.812 42.3125ZM146.438 40.125C146.438 36.7292 146.479 34.1667 146.562 32.4375C146.646 30.6875 146.865 28.125 147.219 24.75L143.594 24.2812C143.156 22.9271 142.865 21.7188 142.719 20.6562C142.594 19.5938 142.531 18.2188 142.531 16.5312C142.865 16.2396 143.417 15.8958 144.188 15.5C144.979 15.0833 145.917 14.7292 147 14.4375C148.083 14.125 149.177 13.9688 150.281 13.9688C152.802 13.9688 154.583 14.5104 155.625 15.5938C156.688 16.6771 157.219 18.3021 157.219 20.4688C157.219 21.6771 157.042 23.3125 156.688 25.375C156.104 28.6875 155.812 30.4271 155.812 30.5938C155.812 30.6979 155.885 30.8021 156.031 30.9062C156.177 30.9896 156.333 31.0312 156.5 31.0312C156.688 31.0312 156.812 30.9583 156.875 30.8125C157.708 27.5 158.542 24.7292 159.375 22.5C160.208 20.2708 161.469 18.2917 163.156 16.5625C164.844 14.8333 167.031 13.9688 169.719 13.9688C173.052 13.9688 175.448 14.9896 176.906 17.0312C178.365 19.0521 179.094 21.6042 179.094 24.6875C179.094 27.4375 178.771 30.0938 178.125 32.6562C177.479 35.1979 176.677 37.8542 175.719 40.625C175.76 40.5208 175.615 40.9271 175.281 41.8438L175.344 41.9062L179.906 40.0312C181.531 41.4271 182.479 43.2812 182.75 45.5938C182.75 45.7396 182.281 46.3333 181.344 47.375C180.427 48.4167 179.208 49.3854 177.688 50.2812C176.167 51.1771 174.417 51.625 172.438 51.625C170.458 51.625 168.844 51.0938 167.594 50.0312C166.344 48.9688 165.719 47.1562 165.719 44.5938C165.719 42.5521 165.802 39.8229 165.969 36.4062C166.135 32.9896 166.302 30.2396 166.469 28.1562C165.927 27.5729 165.26 27.2604 164.469 27.2188C163.74 28.1562 162.667 30.0312 161.25 32.8438C159.833 35.6562 158.833 37.7604 158.25 39.1562C158.208 39.4479 158.188 39.7292 158.188 40C158.188 41.0417 158.344 42.4479 158.656 44.2188C158.969 45.9688 159.354 47.6042 159.812 49.125C159.438 49.8333 158.667 50.4271 157.5 50.9062C156.333 51.3854 154.896 51.625 153.188 51.625C151.646 51.625 150.406 51.5 149.469 51.25C148.552 51 147.906 50.7396 147.531 50.4688C147.156 50.1771 146.969 50 146.969 49.9375C146.948 49.75 146.896 49.2604 146.812 48.4688C146.729 47.6562 146.646 46.5312 146.562 45.0938C146.479 43.6354 146.438 41.9792 146.438 40.125ZM185.281 32.9688C185.281 29.8021 185.719 26.7708 186.594 23.875C187.49 20.9792 188.885 18.6042 190.781 16.75C192.698 14.8958 195.104 13.9688 198 13.9688C201.25 13.9688 204.354 15 207.312 17.0625L207.812 16.75C207.75 14.3125 207.448 12.1042 206.906 10.125L200.562 9.71875C200.271 9.34375 200.042 8.79167 199.875 8.0625C199.708 7.3125 199.625 6.54167 199.625 5.75C199.625 4.6875 199.75 3.77083 200 3C201.25 2.10417 202.854 1.42708 204.812 0.96875C206.771 0.510417 208.729 0.28125 210.688 0.28125C212.854 0.28125 214.49 0.739583 215.594 1.65625C216.698 2.55208 217.438 3.91667 217.812 5.75C218.208 7.5625 218.406 10.0833 218.406 13.3125C218.406 17.5625 218.229 22.3854 217.875 27.7812C217.521 33.1771 217.062 37.5833 216.5 41L216.375 41.5312L220 39.9688C220.604 40.6146 221.135 41.4062 221.594 42.3438C222.073 43.2604 222.375 44.3229 222.5 45.5312C222.208 46.1562 221.573 46.9583 220.594 47.9375C219.615 48.8958 218.417 49.75 217 50.5C215.583 51.25 214.104 51.625 212.562 51.625C210.833 51.625 209.5 51.1146 208.562 50.0938C207.646 49.0521 207.188 47.7292 207.188 46.125C207.188 45.7083 207.292 44.8542 207.5 43.5625C207.729 42.2708 207.917 41.375 208.062 40.875L207.125 40.5938C206.062 44.3229 204.656 47.0938 202.906 48.9062C201.156 50.7188 198.99 51.625 196.406 51.625C193.635 51.625 191.417 50.7083 189.75 48.875C188.104 47.0208 186.948 44.6979 186.281 41.9062C185.615 39.1146 185.281 36.1354 185.281 32.9688ZM206.719 32.4062C206.844 31.6562 206.906 30.7812 206.906 29.7812C206.906 29.1354 206.875 28.5208 206.812 27.9375C206.771 27.3542 206.719 26.9375 206.656 26.6875C205.823 26.0833 204.875 25.6562 203.812 25.4062C202.771 25.1562 201.812 25.0312 200.938 25.0312C200.396 25.0312 199.812 25.0833 199.188 25.1875C198.771 25.6042 198.438 26.5104 198.188 27.9062C197.938 29.2812 197.812 30.8333 197.812 32.5625C197.812 34.4167 197.938 36.2188 198.188 37.9688C198.458 39.6979 198.833 41.0521 199.312 42.0312C199.646 42.0312 200.292 41.5208 201.25 40.5C202.229 39.4583 203.24 38.1875 204.281 36.6875C205.323 35.1667 206.135 33.7396 206.719 32.4062ZM234.688 30.4062C235.917 30.4062 237.271 30.5312 238.75 30.7812C240.25 31.0312 241.625 31.3333 242.875 31.6875V30.7188C242.875 30.0729 242.854 29.3542 242.812 28.5625C242.792 27.7708 242.75 27.25 242.688 27C242.5 26.6458 241.958 26.2812 241.062 25.9062C240.188 25.5312 238.75 25.3438 236.75 25.3438C235.521 25.3438 234.25 25.5 232.938 25.8125C231.646 26.1042 230.208 26.5 228.625 27C227.771 25.5833 227.083 24.2396 226.562 22.9688C226.062 21.6771 225.812 20.3854 225.812 19.0938C225.812 18.6979 225.844 18.3021 225.906 17.9062C229.281 15.2812 233.646 13.9688 239 13.9688C241.958 13.9688 244.583 14.3021 246.875 14.9688C249.167 15.6354 251.052 16.9271 252.531 18.8438C254.01 20.7604 254.75 23.4792 254.75 27C254.75 30.4375 254.344 33.7708 253.531 37C252.74 40.2083 252.333 41.8438 252.312 41.9062L256.844 39.9688C257.448 40.6146 257.979 41.4062 258.438 42.3438C258.917 43.2604 259.219 44.3229 259.344 45.5312C259.052 46.1562 258.417 46.9583 257.438 47.9375C256.458 48.8958 255.26 49.75 253.844 50.5C252.427 51.25 250.948 51.625 249.406 51.625C247.677 51.625 246.365 51.1146 245.469 50.0938C244.594 49.0729 244.156 47.75 244.156 46.125C244.156 45.2083 244.292 44.2812 244.562 43.3438L243.625 43.0625C243.042 46.3542 241.802 48.6042 239.906 49.8125C238.01 51.0208 235.917 51.625 233.625 51.625C232.125 51.625 230.677 51.2083 229.281 50.375C227.885 49.5208 226.75 48.2917 225.875 46.6875C225 45.0625 224.562 43.1667 224.562 41C224.562 37.5417 225.427 34.9167 227.156 33.125C228.885 31.3125 231.396 30.4062 234.688 30.4062ZM238.25 42.3125C238.771 42.2083 239.385 41.9167 240.094 41.4375C240.823 40.9583 241.469 40.3854 242.031 39.7188C242.594 39.0521 242.927 38.4167 243.031 37.8125L242.844 37.0625C241.74 36.9167 240.562 36.8438 239.312 36.8438C238.25 36.8438 237.521 36.9271 237.125 37.0938C236.458 37.8438 236.125 38.6771 236.125 39.5938C236.125 40.2604 236.292 40.8646 236.625 41.4062C236.979 41.9479 237.521 42.25 238.25 42.3125ZM281.875 37.5625C280.375 31.375 279.052 26.1979 277.906 22.0312C276.76 17.8438 275.844 15.2396 275.156 14.2188L272.031 14C271.427 12.4167 271 10.4688 270.75 8.15625C271.104 7.01042 271.771 6.02083 272.75 5.1875C273.729 4.33333 274.875 3.6875 276.188 3.25C277.5 2.8125 278.823 2.59375 280.156 2.59375C283.198 2.59375 285.469 3.98958 286.969 6.78125C287.656 8.05208 288.24 9.58333 288.719 11.375C289.198 13.1458 289.646 15.25 290.062 17.6875C290.75 21.7917 291.229 25.4792 291.5 28.75C291.771 32 291.99 35.4583 292.156 39.125L292.281 41.9375H292.75C293.271 40.7917 293.844 38.3229 294.469 34.5312C295.094 30.7396 295.635 26.7292 296.094 22.5C296.552 18.25 296.802 15.0938 296.844 13.0312L292.906 12.4375C292.615 11.3333 292.427 10.3438 292.344 9.46875C292.26 8.59375 292.219 7.53125 292.219 6.28125C292.656 5.73958 293.385 5.17708 294.406 4.59375C295.427 4.01042 296.615 3.52083 297.969 3.125C299.323 2.72917 300.667 2.53125 302 2.53125C303.792 2.53125 305.406 2.83333 306.844 3.4375C308.302 4.02083 309.458 4.89583 310.312 6.0625C311.188 7.22917 311.635 8.65625 311.656 10.3438V15.1562C312.594 18.8021 313.406 23.0833 314.094 28C314.802 32.8958 315.323 37.5312 315.656 41.9062H316C316.5 40.7396 317.062 38.2604 317.688 34.4688C318.333 30.6562 318.896 26.6458 319.375 22.4375C319.854 18.2083 320.104 15.0729 320.125 13.0312L316.438 12.4375C316.146 11.3333 315.958 10.3438 315.875 9.46875C315.792 8.59375 315.75 7.53125 315.75 6.28125C316.167 5.73958 316.896 5.17708 317.938 4.59375C318.979 4.01042 320.177 3.52083 321.531 3.125C322.906 2.72917 324.26 2.53125 325.594 2.53125C328.323 2.53125 330.365 3.23958 331.719 4.65625C333.073 6.07292 333.75 8.22917 333.75 11.125C333.75 13.875 333.292 17.4167 332.375 21.75C331.458 26.0833 330.312 30.1562 328.938 33.9688C327.75 37.3021 326.583 40.1875 325.438 42.625C324.292 45.0417 322.875 47.4167 321.188 49.75C320.5 50.4583 319.594 50.9479 318.469 51.2188C317.365 51.4896 316.219 51.625 315.031 51.625C310.927 51.625 307.896 50.8333 305.938 49.25L306.781 42.8438L304.75 32.3125C304.271 29.5417 303.958 27.3333 303.812 25.6875L303.406 25.6562L303.312 29.625C302.625 33.7083 301.781 37.5 300.781 41C299.802 44.4792 298.677 47.3958 297.406 49.75C296.802 50.4375 295.969 50.9167 294.906 51.1875C293.844 51.4792 292.76 51.625 291.656 51.625C287.385 51.625 284.375 50.8438 282.625 49.2812L283.312 43.4062L281.875 37.5625ZM346.562 30.4062C347.792 30.4062 349.146 30.5312 350.625 30.7812C352.125 31.0312 353.5 31.3333 354.75 31.6875V30.7188C354.75 30.0729 354.729 29.3542 354.688 28.5625C354.667 27.7708 354.625 27.25 354.562 27C354.375 26.6458 353.833 26.2812 352.938 25.9062C352.062 25.5312 350.625 25.3438 348.625 25.3438C347.396 25.3438 346.125 25.5 344.812 25.8125C343.521 26.1042 342.083 26.5 340.5 27C339.646 25.5833 338.958 24.2396 338.438 22.9688C337.938 21.6771 337.688 20.3854 337.688 19.0938C337.688 18.6979 337.719 18.3021 337.781 17.9062C341.156 15.2812 345.521 13.9688 350.875 13.9688C353.833 13.9688 356.458 14.3021 358.75 14.9688C361.042 15.6354 362.927 16.9271 364.406 18.8438C365.885 20.7604 366.625 23.4792 366.625 27C366.625 30.4375 366.219 33.7708 365.406 37C364.615 40.2083 364.208 41.8438 364.188 41.9062L368.719 39.9688C369.323 40.6146 369.854 41.4062 370.312 42.3438C370.792 43.2604 371.094 44.3229 371.219 45.5312C370.927 46.1562 370.292 46.9583 369.312 47.9375C368.333 48.8958 367.135 49.75 365.719 50.5C364.302 51.25 362.823 51.625 361.281 51.625C359.552 51.625 358.24 51.1146 357.344 50.0938C356.469 49.0729 356.031 47.75 356.031 46.125C356.031 45.2083 356.167 44.2812 356.438 43.3438L355.5 43.0625C354.917 46.3542 353.677 48.6042 351.781 49.8125C349.885 51.0208 347.792 51.625 345.5 51.625C344 51.625 342.552 51.2083 341.156 50.375C339.76 49.5208 338.625 48.2917 337.75 46.6875C336.875 45.0625 336.438 43.1667 336.438 41C336.438 37.5417 337.302 34.9167 339.031 33.125C340.76 31.3125 343.271 30.4062 346.562 30.4062ZM350.125 42.3125C350.646 42.2083 351.26 41.9167 351.969 41.4375C352.698 40.9583 353.344 40.3854 353.906 39.7188C354.469 39.0521 354.802 38.4167 354.906 37.8125L354.719 37.0625C353.615 36.9167 352.438 36.8438 351.188 36.8438C350.125 36.8438 349.396 36.9271 349 37.0938C348.333 37.8438 348 38.6771 348 39.5938C348 40.2604 348.167 40.8646 348.5 41.4062C348.854 41.9479 349.396 42.25 350.125 42.3125ZM375.75 40.125C375.75 36.7292 375.792 34.1667 375.875 32.4375C375.958 30.6875 376.177 28.125 376.531 24.75L372.906 24.2812C372.469 22.9271 372.177 21.7188 372.031 20.6562C371.906 19.5938 371.844 18.2188 371.844 16.5312C372.177 16.2396 372.729 15.8958 373.5 15.5C374.292 15.0833 375.229 14.7292 376.312 14.4375C377.396 14.125 378.49 13.9688 379.594 13.9688C382.115 13.9688 383.896 14.5104 384.938 15.5938C386 16.6771 386.531 18.3021 386.531 20.4688C386.531 21.6771 386.354 23.3125 386 25.375C385.417 28.6875 385.125 30.4271 385.125 30.5938C385.125 30.6979 385.198 30.8021 385.344 30.9062C385.49 30.9896 385.646 31.0312 385.812 31.0312C386 31.0312 386.125 30.9583 386.188 30.8125C387.021 27.5 387.854 24.7292 388.688 22.5C389.521 20.2708 390.781 18.2917 392.469 16.5625C394.156 14.8333 396.344 13.9688 399.031 13.9688C402.365 13.9688 404.76 14.9896 406.219 17.0312C407.677 19.0521 408.406 21.6042 408.406 24.6875C408.406 27.4375 408.083 30.0938 407.438 32.6562C406.792 35.1979 405.99 37.8542 405.031 40.625C405.073 40.5208 404.927 40.9271 404.594 41.8438L404.656 41.9062L409.219 40.0312C410.844 41.4271 411.792 43.2812 412.062 45.5938C412.062 45.7396 411.594 46.3333 410.656 47.375C409.74 48.4167 408.521 49.3854 407 50.2812C405.479 51.1771 403.729 51.625 401.75 51.625C399.771 51.625 398.156 51.0938 396.906 50.0312C395.656 48.9688 395.031 47.1562 395.031 44.5938C395.031 42.5521 395.115 39.8229 395.281 36.4062C395.448 32.9896 395.615 30.2396 395.781 28.1562C395.24 27.5729 394.573 27.2604 393.781 27.2188C393.052 28.1562 391.979 30.0312 390.562 32.8438C389.146 35.6562 388.146 37.7604 387.562 39.1562C387.521 39.4479 387.5 39.7292 387.5 40C387.5 41.0417 387.656 42.4479 387.969 44.2188C388.281 45.9688 388.667 47.6042 389.125 49.125C388.75 49.8333 387.979 50.4271 386.812 50.9062C385.646 51.3854 384.208 51.625 382.5 51.625C380.958 51.625 379.719 51.5 378.781 51.25C377.865 51 377.219 50.7396 376.844 50.4688C376.469 50.1771 376.281 50 376.281 49.9375C376.26 49.75 376.208 49.2604 376.125 48.4688C376.042 47.6562 375.958 46.5312 375.875 45.0938C375.792 43.6354 375.75 41.9792 375.75 40.125ZM432.75 55.9688C434.146 55.9688 435.354 55.8125 436.375 55.5C436.688 55.1875 436.906 54.8229 437.031 54.4062C437.156 54.0104 437.219 53.6354 437.219 53.2812C437.219 52.9062 437.188 52.625 437.125 52.4375C437.062 52.2708 436.958 52.1146 436.812 51.9688C435.938 51.8229 434.906 51.7188 433.719 51.6562C432.552 51.6146 431.854 51.5833 431.625 51.5625C428.729 51.4375 426.375 51.2292 424.562 50.9375C422.75 50.625 421.198 49.9583 419.906 48.9375C418.615 47.8958 417.969 46.3333 417.969 44.25C417.969 43.125 418.333 42.0729 419.062 41.0938C419.792 40.0938 420.74 39.2188 421.906 38.4688C419.531 37.4896 417.625 36.0208 416.188 34.0625C414.771 32.0833 414.062 29.5312 414.062 26.4062C414.062 23.3021 414.854 20.8125 416.438 18.9375C418.042 17.0417 420.01 15.7083 422.344 14.9375C424.677 14.1667 427.052 13.7812 429.469 13.7812C430.99 13.7812 432.479 13.9271 433.938 14.2188C435.396 14.5104 436.75 14.9271 438 15.4688L436.656 7.53125C437.927 6.76042 439.51 6.375 441.406 6.375C442.781 6.375 444.062 6.60417 445.25 7.0625C446.438 7.52083 447.344 8.17708 447.969 9.03125C448.01 9.23958 448.031 9.57292 448.031 10.0312C448.031 11.7396 447.719 13.6458 447.094 15.75C446.49 17.8333 445.438 19.5104 443.938 20.7812C444.688 22.2812 445.062 23.8958 445.062 25.625C445.062 28.1667 444.573 30.5104 443.594 32.6562C442.635 34.8021 441.031 36.5521 438.781 37.9062C436.531 39.2396 433.604 39.9062 430 39.9062C428.958 39.9062 427.875 39.8438 426.75 39.7188C426.688 40.7604 426.938 41.8021 427.5 42.8438C430.312 42.3021 432.583 42.0208 434.312 42L436.438 41.9688C439.312 41.9688 441.49 42.1458 442.969 42.5C444.594 42.8958 445.802 43.7917 446.594 45.1875C447.406 46.5833 447.812 48.2812 447.812 50.2812C447.812 53.4062 446.854 56.0312 444.938 58.1562C443.042 60.3021 440.573 61.8958 437.531 62.9375C434.51 63.9792 431.302 64.5 427.906 64.5C424.76 64.5 421.958 63.9688 419.5 62.9062C417.042 61.8438 415.49 59.8958 414.844 57.0625C415.531 54.6667 416.844 52.8542 418.781 51.625C421.385 53.1875 423.875 54.3021 426.25 54.9688C428.646 55.6354 430.812 55.9688 432.75 55.9688ZM430.844 32.1875C432.344 32.1875 433.219 32.0938 433.469 31.9062C434.031 30.7812 434.312 29.625 434.312 28.4375C434.312 27.2083 434.031 26.0521 433.469 24.9688C433.198 24.7396 432.594 24.5625 431.656 24.4375C430.74 24.3125 429.74 24.25 428.656 24.25C427.302 24.25 426.396 24.3333 425.938 24.5C425.292 25.6458 424.969 26.8021 424.969 27.9688C424.969 29.1562 425.271 30.2812 425.875 31.3438C426.333 31.6354 427.021 31.8542 427.938 32C428.875 32.125 429.844 32.1875 430.844 32.1875Z" fill="black"/>
</svg>
