<svg width="251" height="251" viewBox="0 0 251 251" fill="none" xmlns="http://www.w3.org/2000/svg">
<circle cx="125.5" cy="125.5" r="100.5" stroke="#E3ABA8" stroke-opacity="0.2" stroke-width="50"/>
<path d="M32.0773 162.547C38.8176 179.544 50.0673 194.38 64.6148 205.458C79.1624 216.535 96.4564 223.434 114.634 225.411C132.812 227.388 151.185 224.368 167.773 216.677C184.362 208.986 198.538 196.914 208.775 181.764C219.011 166.613 224.92 148.956 225.866 130.695C226.811 112.435 222.756 94.2625 214.139 78.1355C205.521 62.0086 192.667 48.5382 176.962 39.1753C161.256 29.8124 143.293 24.9117 125.008 25.0012" stroke="#E3ABA8" stroke-width="50"/>
<path d="M95.6567 141.48C95.5234 141.907 94.1101 142.12 91.4167 142.12C88.7234 142.12 87.2167 142 86.8967 141.76C86.7901 141.68 86.7367 141.587 86.7367 141.48L93.4167 121.88H85.2967C84.4967 121.88 84.0967 120.587 84.0967 118C84.0967 117.12 84.1767 116.267 84.3367 115.44C84.5234 114.613 84.8301 114.2 85.2567 114.2L99.2567 114.16C100.323 114.16 101.19 114.747 101.857 115.92C102.177 116.507 102.403 117.093 102.537 117.68L95.6567 141.48ZM121.937 111C122.07 110.707 122.323 110.56 122.697 110.56C123.097 110.56 123.51 110.653 123.937 110.84C124.923 111.293 125.563 111.827 125.857 112.44C125.963 112.627 126.017 112.8 126.017 112.96C126.017 113.12 125.99 113.253 125.937 113.36L107.257 145.8C107.097 146.067 106.817 146.2 106.417 146.2C106.017 146.2 105.617 146.107 105.217 145.92C104.203 145.44 103.55 144.907 103.257 144.32C103.177 144.16 103.137 144 103.137 143.84C103.137 143.707 103.177 143.573 103.257 143.44L121.937 111ZM140.306 141.32C140.306 141.773 138.946 142 136.226 142C133.533 142 132.186 141.773 132.186 141.32V121.6L127.866 121.64C127.066 121.64 126.666 120.36 126.666 117.8C126.666 116.92 126.746 116.067 126.906 115.24C127.093 114.413 127.4 114 127.826 114H138.786C139.24 114 139.6 114.107 139.866 114.32C140.16 114.507 140.306 114.747 140.306 115.04V141.32ZM155.076 142.4C151.743 142.4 149.01 141.173 146.876 138.72C144.77 136.267 143.716 132.68 143.716 127.96C143.716 123.24 144.783 119.68 146.916 117.28C149.05 114.853 151.796 113.64 155.156 113.64C158.543 113.64 161.276 114.84 163.356 117.24C165.436 119.64 166.476 123.253 166.476 128.08C166.476 132.907 165.41 136.507 163.276 138.88C161.17 141.227 158.436 142.4 155.076 142.4ZM155.076 121.32C154.063 121.32 153.196 121.907 152.476 123.08C151.783 124.227 151.436 125.867 151.436 128C151.436 130.133 151.77 131.773 152.436 132.92C153.13 134.04 154.01 134.6 155.076 134.6C156.17 134.6 157.05 134.027 157.716 132.88C158.41 131.733 158.756 130.093 158.756 127.96C158.756 125.827 158.396 124.187 157.676 123.04C156.983 121.893 156.116 121.32 155.076 121.32Z" fill="black"/>
</svg>
