<svg width="251" height="251" viewBox="0 0 251 251" fill="none" xmlns="http://www.w3.org/2000/svg">
<circle cx="125.5" cy="125.5" r="100.5" stroke="#E3ABA8" stroke-opacity="0.2" stroke-width="50"/>
<path d="M31.7053 89.4055C23.996 109.439 22.9035 131.414 28.5879 152.114C34.2722 172.813 46.4348 191.148 63.2943 204.435C80.1539 217.721 100.825 225.26 122.279 225.948C143.734 226.636 164.845 220.437 182.521 208.258C200.197 196.079 213.509 178.56 220.508 158.268C227.507 137.975 227.824 115.975 221.414 95.4886C215.004 75.0024 202.203 57.1068 184.886 44.4227C167.569 31.7385 146.646 24.9322 125.18 25.0005" stroke="#E3ABA8" stroke-width="50"/>
<path d="M103.25 133.56C103.25 136.173 102.304 138.307 100.41 139.96C98.5438 141.613 96.0371 142.44 92.8905 142.44C89.7705 142.44 87.3038 141.653 85.4905 140.08C83.7038 138.48 82.8105 136.4 82.8105 133.84C82.8105 131.253 84.1038 128.96 86.6905 126.96C84.8771 125.387 83.9705 123.493 83.9705 121.28C83.9705 119.067 84.8371 117.24 86.5705 115.8C88.3038 114.36 90.5171 113.64 93.2105 113.64C95.9038 113.64 98.0505 114.32 99.6505 115.68C101.277 117.013 102.077 118.707 102.05 120.76C102.05 122.787 101.197 124.627 99.4905 126.28C100.584 127.08 101.477 128.12 102.17 129.4C102.89 130.653 103.25 132.04 103.25 133.56ZM90.7305 133.2C90.7305 133.973 90.9571 134.6 91.4105 135.08C91.8905 135.533 92.4771 135.76 93.1705 135.76C93.8638 135.76 94.4238 135.533 94.8505 135.08C95.3038 134.6 95.5305 133.973 95.5305 133.2C95.5305 131.76 94.6105 130.573 92.7705 129.64C91.4105 130.467 90.7305 131.653 90.7305 133.2ZM95.0505 121.88C95.0505 121.293 94.8371 120.8 94.4105 120.4C94.0105 120 93.5571 119.8 93.0505 119.8C91.6905 119.8 90.9838 120.453 90.9305 121.76C90.9305 122.96 91.8505 124.093 93.6905 125.16C94.5971 124.147 95.0505 123.053 95.0505 121.88ZM123.343 111C123.476 110.707 123.73 110.56 124.103 110.56C124.503 110.56 124.916 110.653 125.343 110.84C126.33 111.293 126.97 111.827 127.263 112.44C127.37 112.627 127.423 112.8 127.423 112.96C127.423 113.12 127.396 113.253 127.343 113.36L108.663 145.8C108.503 146.067 108.223 146.2 107.823 146.2C107.423 146.2 107.023 146.107 106.623 145.92C105.61 145.44 104.956 144.907 104.663 144.32C104.583 144.16 104.543 144 104.543 143.84C104.543 143.707 104.583 143.573 104.663 143.44L123.343 111ZM141.713 141.32C141.713 141.773 140.353 142 137.633 142C134.939 142 133.593 141.773 133.593 141.32V121.6L129.273 121.64C128.473 121.64 128.073 120.36 128.073 117.8C128.073 116.92 128.153 116.067 128.313 115.24C128.499 114.413 128.806 114 129.233 114H140.193C140.646 114 141.006 114.107 141.273 114.32C141.566 114.507 141.713 114.747 141.713 115.04V141.32ZM156.483 142.4C153.149 142.4 150.416 141.173 148.283 138.72C146.176 136.267 145.123 132.68 145.123 127.96C145.123 123.24 146.189 119.68 148.323 117.28C150.456 114.853 153.203 113.64 156.563 113.64C159.949 113.64 162.683 114.84 164.763 117.24C166.843 119.64 167.883 123.253 167.883 128.08C167.883 132.907 166.816 136.507 164.683 138.88C162.576 141.227 159.843 142.4 156.483 142.4ZM156.483 121.32C155.469 121.32 154.603 121.907 153.883 123.08C153.189 124.227 152.843 125.867 152.843 128C152.843 130.133 153.176 131.773 153.843 132.92C154.536 134.04 155.416 134.6 156.483 134.6C157.576 134.6 158.456 134.027 159.123 132.88C159.816 131.733 160.163 130.093 160.163 127.96C160.163 125.827 159.803 124.187 159.083 123.04C158.389 121.893 157.523 121.32 156.483 121.32Z" fill="black"/>
</svg>
