<svg width="251" height="251" viewBox="0 0 251 251" fill="none" xmlns="http://www.w3.org/2000/svg">
<circle cx="125.5" cy="125.5" r="100.5" stroke="#E3ABA8" stroke-opacity="0.2" stroke-width="50"/>
<path d="M59.8479 49.4076C41.9903 64.8151 30.1204 86.0124 26.316 109.289C22.5116 132.566 27.0151 156.44 39.0381 176.731C51.0611 197.022 69.8377 212.438 92.0812 220.281C114.325 228.124 138.618 227.894 160.709 219.631C182.8 211.368 201.281 195.598 212.917 175.083C224.554 154.568 228.604 130.613 224.359 107.412C220.114 84.2119 207.845 63.2433 189.698 48.177C171.552 33.1108 148.684 24.9067 125.099 25.0008" stroke="#E3ABA8" stroke-width="50"/>
<path d="M86.7081 135.04C88.7081 135.44 90.2148 135.64 91.2281 135.64C92.2415 135.64 93.1481 135.32 93.9481 134.68C94.7748 134.04 95.2548 133.04 95.3881 131.68C94.0548 132.053 92.9881 132.24 92.1881 132.24C89.3881 132.24 87.2281 131.467 85.7081 129.92C84.1881 128.347 83.4281 126.133 83.4281 123.28C83.4281 120.4 84.2948 118.067 86.0281 116.28C87.7881 114.493 90.1881 113.6 93.2281 113.6C96.2681 113.6 98.6548 114.667 100.388 116.8C102.148 118.933 103.028 122.08 103.028 126.24C103.028 131.44 102.095 135.44 100.228 138.24C98.3881 141.013 95.6415 142.4 91.9881 142.4C87.4548 142.4 85.1881 141.64 85.1881 140.12C85.1881 139.32 85.3481 138.28 85.6681 137C85.9881 135.693 86.3348 135.04 86.7081 135.04ZM93.1481 120.8C92.2948 120.8 91.6281 121.08 91.1481 121.64C90.6948 122.173 90.4681 122.867 90.4681 123.72C90.4681 124.573 90.7348 125.267 91.2681 125.8C91.8281 126.307 92.5348 126.56 93.3881 126.56C94.2415 126.56 94.9348 126.373 95.4681 126C95.4681 124.16 95.2948 122.84 94.9481 122.04C94.6015 121.213 94.0015 120.8 93.1481 120.8ZM123.245 111C123.379 110.707 123.632 110.56 124.005 110.56C124.405 110.56 124.819 110.653 125.245 110.84C126.232 111.293 126.872 111.827 127.165 112.44C127.272 112.627 127.325 112.8 127.325 112.96C127.325 113.12 127.299 113.253 127.245 113.36L108.565 145.8C108.405 146.067 108.125 146.2 107.725 146.2C107.325 146.2 106.925 146.107 106.525 145.92C105.512 145.44 104.859 144.907 104.565 144.32C104.485 144.16 104.445 144 104.445 143.84C104.445 143.707 104.485 143.573 104.565 143.44L123.245 111ZM141.615 141.32C141.615 141.773 140.255 142 137.535 142C134.842 142 133.495 141.773 133.495 141.32V121.6L129.175 121.64C128.375 121.64 127.975 120.36 127.975 117.8C127.975 116.92 128.055 116.067 128.215 115.24C128.402 114.413 128.708 114 129.135 114H140.095C140.548 114 140.908 114.107 141.175 114.32C141.468 114.507 141.615 114.747 141.615 115.04V141.32ZM156.385 142.4C153.052 142.4 150.318 141.173 148.185 138.72C146.078 136.267 145.025 132.68 145.025 127.96C145.025 123.24 146.092 119.68 148.225 117.28C150.358 114.853 153.105 113.64 156.465 113.64C159.852 113.64 162.585 114.84 164.665 117.24C166.745 119.64 167.785 123.253 167.785 128.08C167.785 132.907 166.718 136.507 164.585 138.88C162.478 141.227 159.745 142.4 156.385 142.4ZM156.385 121.32C155.372 121.32 154.505 121.907 153.785 123.08C153.092 124.227 152.745 125.867 152.745 128C152.745 130.133 153.078 131.773 153.745 132.92C154.438 134.04 155.318 134.6 156.385 134.6C157.478 134.6 158.358 134.027 159.025 132.88C159.718 131.733 160.065 130.093 160.065 127.96C160.065 125.827 159.705 124.187 158.985 123.04C158.292 121.893 157.425 121.32 156.385 121.32Z" fill="black"/>
</svg>
